<svg width="383" height="317" viewBox="0 0 383 317" fill="none" xmlns="http://www.w3.org/2000/svg">
<path d="M305.55 0.309715C297.468 1.94452 289.935 6.46428 284.297 13.0035C282.801 14.7345 281.354 16.177 281.054 16.177C280.755 16.177 279.059 15.5038 277.313 14.6383C269.78 10.984 260.6 13.6286 256.659 20.5525C255.462 22.6681 255.262 23.6778 255.262 26.4666C255.262 30.2652 256.16 32.4289 259.403 36.6121C262.047 40.0259 262.596 41.9492 262.196 46.9017C262.047 49.1616 261.747 54.2584 261.598 58.2492C261.298 65.077 261.199 65.5578 259.902 67.6253C253.117 77.9631 261.498 92.3398 276.814 96.6672C279.608 97.4366 286.492 97.6289 288.837 97.0038C289.685 96.7634 291.132 97.0038 293.327 97.8693C296.071 98.879 297.418 99.0714 302.307 99.0714C309.541 99.1195 311.536 98.3501 316.226 93.638C318.471 91.4262 320.167 90.1761 321.514 89.7433C330.095 87.1469 337.329 79.3094 341.021 68.6832C343.615 61.2784 344.762 58.7301 347.356 54.9315C354.241 44.8823 355.688 41.4203 355.688 35.3138C355.688 31.7557 354.69 28.5823 352.595 25.6012C351.447 24.0144 351.348 23.5817 351.797 21.8026C352.395 19.3023 351.996 14.9749 350.899 12.3784C349.252 8.3395 343.665 5.11797 338.426 5.11797C336.88 5.11797 335.683 4.73331 334.136 3.72357C330.644 1.51177 328.698 1.12711 323.061 1.46369C319.07 1.75218 317.573 1.65602 315.777 1.03094C313.033 0.0692902 308.244 -0.267281 305.55 0.309715ZM310.289 7.42593C310.289 7.61826 309.042 8.96458 307.495 10.4071C303.754 13.9171 300.76 18.0522 298.366 22.9566C295.871 27.9572 295.372 29.9767 296.52 30.4094C297.617 30.7941 298.466 30.0248 304.103 23.5817C313.682 12.6189 319.618 8.29142 325.306 8.24333C328.948 8.24333 330.694 9.39732 331.642 12.3784C332.19 14.3017 332.19 14.5422 331.392 15.1191C324.507 19.8312 323.061 21.3218 317.174 29.6401C313.233 35.2658 310.938 39.1124 311.387 39.497C312.285 40.3625 314.729 38.4392 322.761 30.8422C327.551 26.2743 331.991 22.2835 332.589 21.995C333.188 21.7065 334.435 21.466 335.383 21.466C340.621 21.466 342.218 28.2457 338.676 35.2177C337.179 38.1026 335.732 39.9298 329.097 47.2383C324.408 52.3832 322.013 56.1336 317.822 64.4038C314.629 70.8469 313.931 71.8566 310.389 75.2705C304.801 80.7038 301.06 82.3867 293.177 83.0118C289.885 83.3003 287.041 83.6369 286.792 83.7811C285.993 84.2619 287.241 85.3197 289.635 86.1852C290.833 86.618 291.83 87.243 291.83 87.5796C291.83 88.5413 287.939 90.2723 285.195 90.5607C282.451 90.8012 276.864 89.7914 274.419 88.5894C272.174 87.4354 268.732 84.5023 267.036 82.1944C265.04 79.5018 263.992 75.4628 264.89 73.9242L265.489 72.8183L267.036 74.2607C269.131 76.1841 273.172 78.2035 274.918 78.2035C275.716 78.2035 276.365 78.0593 276.365 77.8669C276.365 77.7227 275.118 76.3283 273.621 74.7897C272.074 73.251 270.229 70.7507 269.53 69.2602C268.433 66.9041 268.233 65.8944 268.283 61.8074C268.283 59.2109 268.682 54.2584 269.181 50.7964C270.428 41.6607 269.63 38.3911 264.641 31.6596C262.097 28.2457 261.698 25.8416 263.244 23.3413C265.389 19.8793 271.625 19.0619 275.816 21.7065C278.111 23.197 278.161 23.4855 277.113 27.236C276.265 30.2171 276.165 33.8714 276.864 34.9292C277.562 35.987 278.809 34.6407 281.354 30.0248C288.188 17.4752 294.524 11.1283 303.105 8.24333C306.448 7.08936 310.289 6.65661 310.289 7.42593ZM342.517 13.1958C343.116 13.6286 343.864 14.4941 344.164 15.0711C344.712 16.0808 344.912 18.5811 344.463 18.5811C344.363 18.5811 343.016 17.6675 341.47 16.6097C338.975 14.7826 338.177 13.4843 339.075 12.6669C339.674 12.0899 341.47 12.3304 342.517 13.1958ZM348.404 35.9389C348.404 39.6894 347.157 42.4301 342.218 49.8348C338.526 55.3643 336.78 58.8743 334.984 64.2596C330.544 77.4823 323.859 84.1658 312.285 86.9065C309.94 87.4835 307.845 88.1085 307.595 88.3489C307.346 88.5894 307.645 89.1183 308.294 89.6472L309.491 90.5607L307.994 91.3301C307.196 91.7147 305.799 92.1956 304.851 92.3879C302.656 92.8206 297.817 92.2436 297.817 91.5224C297.817 91.1858 298.366 90.128 299.064 89.1664C300.062 87.772 300.86 87.243 303.155 86.618C308.244 85.1755 310.638 83.7811 315.178 79.5498C318.72 76.2321 321.664 71.7605 325.755 63.5864C328.848 57.4799 329.696 56.2298 334.236 51.2773C342.318 42.5262 345.261 38.1988 346.708 33.0059C347.257 31.0826 347.356 30.9864 347.855 31.8038C348.205 32.3327 348.454 34.2079 348.404 35.9389Z" fill="black"/>
<path d="M285.245 43.4398C284.147 43.6802 282.202 47.7191 281.104 51.9504C280.206 55.6047 279.857 60.5091 280.556 60.8938C280.755 61.038 281.803 58.8743 282.8 56.0855C283.848 53.2967 285.295 49.5463 286.043 47.7191C287.241 44.9784 287.34 44.3534 286.792 43.8725C286.392 43.5359 285.694 43.3436 285.245 43.4398Z" fill="black"/>
<path d="M293.028 48.9693C291.93 50.1233 290.583 51.8062 289.985 52.7197C288.189 55.5085 285.794 61.8073 285.944 63.2017C286.093 64.3076 286.842 63.4422 291.182 57.1433C293.976 53.1044 296.32 49.4982 296.37 49.2097C296.72 46.3728 295.572 46.2767 293.028 48.9693Z" fill="black"/>
<path d="M297.767 58.4416C294.076 62.0478 290.384 68.2504 292.28 67.5292C292.529 67.433 295.223 65.077 298.266 62.2401C303.953 56.9991 304.702 55.6047 301.908 55.6047C300.96 55.6047 299.813 56.4221 297.767 58.4416Z" fill="black"/>
<path d="M57.8026 0.26162C55.1086 1.07903 50.3692 3.81974 47.3759 6.32003C45.3803 7.90676 43.9336 8.77225 43.3349 8.628C42.8859 8.48375 41.1897 8.77225 39.6431 9.20499C37.1986 9.87814 36.2008 10.5513 32.9581 13.6767C28.4182 18.0522 25.375 23.3413 22.9803 30.8422C20.5857 38.4392 20.2365 41.0838 20.2365 51.7581C20.2365 62.7209 20.6356 65.0289 23.7287 72.5298C25.2752 76.3283 25.4249 77.0015 25.1255 79.7903C24.8262 82.531 24.9759 83.2041 26.1732 85.8487C29.5157 93.013 39.4935 98.4944 50.469 99.2156C61.2948 99.9369 69.6761 95.5613 71.4222 88.349C71.9211 86.1852 72.1706 85.8487 73.767 85.3678C78.8557 83.7811 86.6383 78.8767 90.2303 74.982C94.7203 70.1256 96.5661 64.8846 95.3189 60.2206C95.0196 59.0186 93.1737 55.3643 91.228 52.1428L87.686 46.2286L88.5341 43.9206C89.6815 40.7953 89.3323 36.8525 87.3866 31.4192C85.0917 25.0242 82.298 22.1392 76.3612 20.0236C71.3723 18.1964 71.3723 18.1964 71.6717 13.869C72.1207 7.85867 69.8757 3.29083 65.3857 1.07903C63.5897 0.165459 59.4988 -0.267288 57.8026 0.26162ZM63.2904 7.32977C65.2859 8.9165 65.9844 11.3687 65.236 14.2056C64.787 15.9366 63.7394 17.2829 59.7483 21.2737C54.4601 26.6109 52.3648 29.9767 51.3171 34.8811C51.0178 36.3717 50.2195 38.7277 49.571 40.1702C48.9224 41.5646 48.3737 42.8147 48.3737 42.959C48.3737 43.0551 49.4213 43.1032 50.7184 42.959C52.8636 42.8147 53.1131 42.6705 53.4124 41.3723C53.5621 40.6029 54.7594 37.9103 56.0565 35.41C58.9002 29.9286 65.0864 23.3894 67.3813 23.3894C69.3768 23.3894 78.0075 27.4283 79.2049 28.9189C80.6018 30.6017 82.7969 37.2852 82.7969 39.7855C82.7969 42.382 81.4499 43.5841 78.5563 43.5841C73.6672 43.5841 71.073 40.6991 68.9777 33.054C68.828 32.5251 68.6784 32.5251 68.0797 33.0059C67.6806 33.3425 67.3314 33.8714 67.3314 34.1599C67.3314 34.4964 67.032 35.1215 66.6828 35.6023C66.0841 36.3717 65.8846 36.3236 63.5897 34.4964C62.2427 33.4386 60.9456 32.7174 60.6962 32.8616C60.4467 33.0059 60.3968 33.8714 60.5465 34.7369C61.5443 40.1221 61.6939 39.497 58.9501 41.4203C57.3037 42.5262 56.5055 43.3917 56.7051 43.8725C56.8547 44.2572 57.2539 44.5457 57.6031 44.5457C58.7505 44.5457 59.2494 45.6997 59.7982 49.5944C60.3968 53.7776 61.8436 56.951 65.5853 62.5286C66.7826 64.3557 67.8801 66.0867 67.9799 66.3752C68.3291 67.1926 70.0254 65.9905 70.2249 64.8366C70.3247 64.3077 70.7238 63.5864 71.1229 63.2498C71.7715 62.769 72.3202 63.0575 74.4654 65.1251C77.0597 67.5773 79.8534 69.0678 81.7991 69.0678C83.3456 69.0678 82.9964 67.9619 80.8512 66.0867C75.4632 61.4227 74.1162 51.8543 78.6062 49.8829C81.4998 48.6327 82.3479 49.3059 86.5385 56.5664C90.5795 63.4422 90.1305 66.3752 84.2935 71.9047C80.7015 75.3186 75.7127 78.2035 70.5242 79.9345C67.1817 81.0404 65.5354 81.2808 59.6984 81.4731C54.8592 81.6174 52.8636 81.8578 53.0133 82.2425C53.3625 83.3484 56.3559 84.7908 59.449 85.3678C61.1951 85.7044 63.0908 86.041 63.7394 86.1852C65.2859 86.4737 65.1862 88.3009 63.4899 89.8876C61.3946 91.8109 58.6507 92.6764 53.9113 92.9649C48.5732 93.2534 44.1331 92.3398 39.3438 89.9357C36.2507 88.349 32.4093 85.0793 32.4093 84.0215C32.4093 83.7811 33.7563 84.1177 35.4026 84.7908C38.5955 85.9929 42.3371 86.3776 45.5799 85.7525C48.1242 85.2236 47.4757 84.6947 42.8859 83.4445C36.4004 81.7136 32.5091 77.915 29.4659 70.3661C27.3206 65.2212 26.4226 59.5475 26.4226 51.71C26.4226 40.8433 28.0191 33.1501 31.9603 25.4569C34.2552 20.841 38.5955 16.0327 41.1398 15.2153C43.5844 14.446 45.4302 15.3596 46.2783 17.8118C47.0766 20.1678 46.5777 21.7065 43.7839 25.8897C41.1398 29.7843 40.142 32.3327 39.3937 37.0929C38.6454 41.7088 37.3982 44.2572 35.4026 45.2669C33.3572 46.2767 33.5068 46.9498 35.8017 46.9498C36.999 46.9498 38.3959 46.469 39.8926 45.5074C41.1398 44.738 42.5367 44.0649 42.9857 44.0649C44.183 44.0649 44.5322 43.2956 43.8338 42.1897C42.4868 40.2183 45.2307 32.7655 48.8227 28.3419C49.8703 27.0917 51.1175 25.2165 51.5665 24.1587C52.6641 21.6103 52.5643 17.6675 51.367 14.6383L50.3193 12.0899L52.265 10.4071C54.5599 8.43567 59.0997 6.07962 60.6463 6.07962C61.2449 6.07962 62.4423 6.65661 63.2904 7.32977ZM69.0775 44.8342L71.4721 47.5268L70.6739 49.7386C70.175 50.9888 69.8258 52.9121 69.8258 54.018C69.8258 56.2779 69.1772 56.951 67.9799 55.9894C66.5331 54.8835 65.3857 51.5658 65.0365 47.5749C64.4877 41.228 65.3857 40.651 69.0775 44.8342Z" fill="black"/>
<path d="M11.456 105.851C7.16562 107.005 3.47385 109.794 1.47831 113.4C-1.16579 118.112 -0.367575 121.43 4.72107 126.767C8.96161 131.239 9.46049 132.537 8.51261 137.345C6.26762 149.27 5.96829 153.116 7.01595 158.934C7.56473 161.819 10.0093 168.262 10.9572 169.224C11.1567 169.416 10.4583 171.291 9.41061 173.311C7.71439 176.484 7.46495 177.446 7.46495 180.187C7.46495 189.803 15.2476 199.42 25.9238 203.026C30.8129 204.661 36.4503 204.853 40.3416 203.459C44.0832 202.16 47.9746 198.602 49.3714 195.333C50.3193 193.217 50.8182 192.688 52.1652 192.255C54.51 191.582 59.6485 188.697 62.5919 186.437C70.4743 180.427 77.2592 176.725 86.0396 173.696C97.065 169.849 103.301 166.772 107.143 163.214C109.687 160.906 110.735 159.127 111.034 156.482C111.184 155.376 111.932 153.309 112.73 151.818C116.621 144.558 115.175 138.499 108.639 134.412C106.943 133.402 105.446 132.537 105.297 132.537C105.097 132.537 104.598 131.431 104.099 130.085C101.555 123.209 93.6227 119.555 81.4499 119.555C74.4654 119.555 68.1296 120.42 54.3603 123.209C46.2285 124.844 41.8881 125.469 38.6454 125.517L34.1554 125.565L33.9059 120.035C33.6066 113.833 32.9581 112.342 29.5656 109.409C25.1255 105.707 17.5924 104.216 11.456 105.851ZM22.6311 113.544C26.1233 115.227 26.6721 116.429 26.6721 122.68C26.6721 128.642 27.0712 129.604 30.1144 131.768C31.3616 132.681 32.1598 132.777 37.5478 132.729C42.7362 132.729 45.3305 132.393 54.8592 130.517C72.6695 127.007 75.4632 126.623 82.9465 126.863C87.7358 127.055 90.0806 127.344 91.5274 127.969C94.2713 129.123 96.3167 130.614 96.0174 131.142C95.8178 131.383 94.3211 131.575 92.6249 131.575C85.441 131.575 74.5153 134.22 68.2294 137.441L65.2859 138.932L62.8414 136.624C59.7982 133.691 59 134.124 60.4467 137.826C63.7394 146.385 66.4334 154.655 67.5808 159.944C68.2793 163.262 69.0775 166.147 69.3269 166.387C69.9755 167.012 70.8735 164.945 71.3225 161.771C71.8214 158.501 71.9211 158.357 77.3091 155.809C83.9942 152.635 90.8788 150.808 95.9675 150.808C100.857 150.808 104.249 152.635 104.249 155.28C104.249 158.405 98.9109 161.579 86.0396 166.147C72.869 170.811 68.9278 172.83 59.5986 179.61C52.1652 184.995 47.5754 186.87 41.7884 186.87C30.2142 186.87 22.9304 181.196 22.9304 172.157C22.9304 166.291 25.5247 160.906 31.0623 155.28C32.4592 153.886 33.4071 152.587 33.2574 152.443C33.0578 152.251 31.7108 152.683 30.2142 153.405C27.0712 154.895 22.6311 159.271 20.3362 163.117C19.538 164.56 18.5402 165.714 18.2409 165.714C17.1434 165.714 15.048 161.338 14.3995 157.78C13.701 153.741 14.0503 147.491 15.4471 141.192C17.4427 132.008 16.5946 128.642 10.8075 122.536C8.96161 120.66 7.46495 118.785 7.46495 118.401C7.46495 117.102 9.75983 114.554 11.9549 113.4C13.8008 112.486 14.7487 112.294 17.4427 112.438C19.3385 112.534 21.4837 113.015 22.6311 113.544ZM99.0107 138.355C102.503 138.98 105.396 140.278 106.444 141.769C107.342 143.019 107.492 145.134 106.743 146.481C106.294 147.298 106.095 147.298 104.898 146.721C104.199 146.337 102.054 145.808 100.158 145.519C93.7724 144.461 85.7902 146.24 76.2115 150.856C72.9189 152.443 71.2726 153.02 71.0231 152.635C70.2748 151.481 67.93 143.884 68.1795 143.307C68.6285 142.153 78.6062 138.98 84.2935 138.163C87.0873 137.73 96.2668 137.874 99.0107 138.355ZM18.6899 179.369C21.5834 187.014 28.518 192.063 37.4979 192.977C39.0445 193.121 40.591 193.409 40.9403 193.65C42.0877 194.323 39.9924 195.958 36.999 196.775C34.7042 197.448 33.8062 197.448 31.212 196.968C22.6311 195.381 14.9482 187.591 14.9482 180.571C14.9482 178.648 16.0957 175.811 16.8939 175.811C17.1434 175.811 17.9416 177.398 18.6899 179.369Z" fill="black"/>
<path d="M164.914 0.309677C157.929 1.36749 151.244 6.17576 147.802 12.5707C146.455 15.1672 145.507 16.2731 144.21 16.9463C141.765 18.1964 137.625 22.2353 136.028 24.928C133.983 28.2938 133.135 32.0923 133.234 37.4775C133.384 45.9401 135.43 54.2103 138.872 60.1725C140.967 63.6825 146.904 69.3563 152.242 72.8182L155.984 75.2705L155.934 78.2997C155.884 84.1657 159.276 89.4548 165.712 93.4938C178.733 101.668 197.74 101.139 206.87 92.3879C210.063 89.2625 211.26 85.9929 210.911 81.1365L210.662 77.9631L214.304 74.3088C218.694 69.789 222.336 63.1056 224.331 55.8451C225.379 51.8542 225.628 49.9309 225.628 44.5457C225.678 38.7758 225.528 37.6218 224.381 34.3041C222.685 29.4958 219.941 25.9858 215.75 23.2932C213.256 21.7064 212.059 20.6005 210.861 18.5811C208.916 15.3115 205.523 12.0418 202.23 10.3109C200.883 9.58962 197.291 8.33948 194.298 7.52207C190.706 6.51234 187.912 5.40644 186.216 4.30054C181.078 0.982841 171.998 -0.748138 164.914 0.309677ZM174.692 8.24331C175.39 8.48373 174.891 9.01263 172.497 10.5513C170.601 11.7533 168.655 13.5805 167.308 15.4076C166.111 17.0424 164.864 18.7253 164.515 19.2061C163.916 20.0235 163.617 19.9274 159.626 18.1002C157.281 16.9943 155.285 16.0327 155.185 15.8884C154.786 15.5519 157.83 11.7533 159.476 10.5513C162.17 8.57989 166.36 7.47399 170.352 7.7144C172.297 7.81057 174.243 8.05098 174.692 8.24331ZM193.3 15.071C196.493 16.0327 200.385 18.0041 200.734 18.8696C200.883 19.2542 200.834 19.5427 200.634 19.5427C193.151 19.9274 185.817 21.9949 182.674 24.6395C181.527 25.553 179.98 27.3321 179.282 28.4861C178.583 29.6401 177.785 30.6017 177.585 30.6017C176.787 30.6017 171.1 24.5914 171.1 23.7259C171.1 21.3218 174.991 16.7539 178.034 15.5999C182.874 13.7728 188.361 13.5805 193.3 15.071ZM157.979 25.1203C163.367 27.8129 168.556 31.5153 169.753 33.3905C171 35.5061 170.85 37.9584 169.304 39.6893C167.658 41.6126 163.567 42.8147 160.374 42.382C158.029 41.9973 153.34 39.5451 151.095 37.5256C150.346 36.8525 149.648 36.4678 149.498 36.7082C148.949 37.6218 150.795 41.6126 152.891 43.8725C155.235 46.469 155.235 46.9017 152.791 47.623C151.244 48.1038 151.344 49.2578 153.04 49.8828C154.687 50.5079 158.129 50.1233 160.274 49.0174C162.12 48.1038 165.961 48.0076 167.658 48.8731C171.898 51.0368 176.787 56.951 178.783 62.3843C179.431 64.0672 180.18 65.5097 180.479 65.6059C181.227 65.8463 181.726 63.7306 181.477 61.1342L181.327 58.9705H183.073C187.813 58.9224 193.201 56.374 195.545 53.0082C196.244 52.0466 196.942 51.2772 197.192 51.2772C197.391 51.2772 198.489 51.9023 199.586 52.7197C202.031 54.4026 204.475 54.9796 206.022 54.1622C207.07 53.6333 207.02 53.5852 204.825 51.2772C203.577 49.979 202.53 48.6808 202.53 48.4404C202.53 48.1519 203.528 47.2864 204.775 46.469C207.469 44.6899 208.516 43.2955 208.516 41.5646C208.516 39.9297 207.718 39.8336 205.074 41.1318C204.026 41.6607 202.38 42.1415 201.332 42.2377C199.536 42.382 199.487 42.3339 198.389 39.7374C196.892 36.1312 195.895 36.2274 195.495 39.9778C194.647 48.3923 187.713 54.3545 182.075 51.5177C179.082 50.0271 178.982 48.7289 181.327 41.7569C185.268 30.169 188.312 27.5725 198.788 26.8994C207.419 26.3224 214.154 29.6881 216.499 35.6504C216.798 36.4197 217.297 38.8719 217.546 41.0837C219.093 54.3545 212.308 69.6929 201.931 76.1359C200.035 77.2899 197.042 78.8286 195.246 79.5498C193.4 80.271 191.903 81.0404 191.903 81.3289C191.854 82.3867 194.597 82.7233 198.638 82.1463C201.233 81.8097 202.929 81.7616 203.228 82.0501C203.977 82.7713 202.081 86.7622 200.335 88.0604C199.437 88.7336 197.042 89.7914 195.046 90.4646C186.366 93.3014 174.542 91.1377 168.057 85.5121C165.313 83.1079 164.115 81.2808 164.115 79.3575C164.115 78.2035 164.265 78.1073 165.762 78.3477C170.401 79.1171 173.245 79.2132 175.59 78.6843C177.037 78.3477 178.034 77.8669 177.935 77.5303C177.835 77.2418 176.189 76.5206 174.293 75.9436C168.755 74.2126 165.213 72.5297 159.975 69.212C150.795 63.346 145.707 57.8165 143.462 51.0849C141.815 46.3247 140.518 37.766 140.917 34.6887C141.366 31.371 143.811 26.6589 145.906 25.1203C149.847 22.1873 152.192 22.1873 157.979 25.1203Z" fill="black"/>
<path d="M160.823 106.091C152.791 108.111 144.609 113.929 141.566 119.795C137.624 127.344 138.073 135.806 142.713 141.865C143.811 143.307 144.16 144.317 144.16 145.952C144.21 148.885 144.908 151.962 146.255 154.751C146.854 156.049 147.253 157.107 147.103 157.203C147.004 157.299 145.607 158.213 144.06 159.175C136.876 163.694 133.783 172.878 136.677 181.1C138.772 187.111 145.407 194.035 152.292 197.4C154.686 198.554 156.582 199.035 160.124 199.468C163.816 199.853 165.762 200.381 168.855 201.776C175.839 204.949 179.98 205.334 185.767 203.218C187.613 202.497 189.459 202.257 192.801 202.305C198.239 202.353 199.287 202.112 203.727 199.997C208.217 197.833 214.603 191.775 217.247 187.159C222.036 178.84 223.583 168.118 221.088 160.425C217.696 150.039 208.816 138.595 198.688 131.479C194.996 128.883 194.547 128.402 194.547 127.055C194.547 124.699 193.151 120.132 191.654 117.439C189.808 114.121 185.218 109.89 181.427 108.063C175.49 105.178 167.508 104.409 160.823 106.091ZM177.835 114.939C180.579 116.237 182.025 117.295 183.322 118.929C185.069 121.141 186.515 124.603 185.917 125.18C185.717 125.324 184.021 125.228 182.075 124.892C178.683 124.363 176.089 124.555 176.089 125.324C176.089 125.517 177.935 126.623 180.229 127.729C190.656 132.97 198.788 139.797 206.221 149.558C212.507 157.78 214.104 161.867 214.054 169.32C214.054 171.676 213.705 174.946 213.256 176.532C211.36 183.264 205.323 190.957 199.985 193.361C195.545 195.333 195.146 194.996 197.491 191.005C200.035 186.726 203.428 174.85 202.18 174.85C201.382 174.85 200.335 176.244 197.042 181.822C193.151 188.409 191.205 191.053 188.012 193.794C183.921 197.352 180.18 197.977 174.891 196.006L173.594 195.525L175.789 192.929C177.037 191.486 178.633 189.274 179.381 187.976C181.177 185.043 183.672 178.311 183.073 177.975C182.574 177.686 180.479 179.61 174.941 185.572C172.796 187.88 170.002 190.332 168.705 191.053C164.115 193.65 157.58 192.4 151.244 187.736C148.75 185.909 145.407 181.822 144.31 179.273C143.312 176.965 143.362 172.686 144.409 170.137C146.056 166.243 150.995 163.406 153.689 164.8C155.435 165.666 158.628 168.214 158.628 168.695C158.628 169.753 155.934 172.445 154.886 172.445C152.591 172.445 150.645 173.07 149.398 174.176C147.852 175.523 148.151 176.292 150.147 176.292C150.945 176.292 152.142 176.484 152.841 176.773C153.988 177.158 154.138 177.494 154.138 179.61C154.138 182.062 154.936 184.466 155.734 184.466C155.983 184.466 156.881 183.024 157.73 181.245C159.526 177.35 161.771 174.128 162.868 173.696C163.417 173.503 164.215 173.984 165.263 175.09C166.46 176.388 166.909 176.629 167.458 176.196C169.354 174.705 166.41 168.406 160.972 162.252C150.196 150.039 149.149 143.211 156.383 132.441C157.63 130.614 158.628 129.027 158.628 128.931C158.628 128.546 156.283 128.69 154.986 129.123C154.337 129.363 152.541 130.71 150.945 132.104C147.453 135.181 146.904 134.893 146.954 130.181C147.004 122.968 152.192 116.958 161.222 113.737C163.367 112.967 164.814 112.823 168.955 112.967C173.644 113.111 174.343 113.304 177.835 114.939Z" fill="black"/>
<path d="M61.5315 210.542C56.5354 212.354 55.1003 214.631 52.7617 224.412C51.0077 231.658 50.6356 232.538 50.1573 229.795C48.7222 220.738 48.0313 218.771 45.2143 215.925C38.6768 209.248 28.2593 210.232 24.273 217.839C22.9442 220.324 22.6785 224.878 23.3694 231.606C23.6352 234.038 24.1135 245.217 24.3793 256.448C25.1765 285.275 25.3891 288.173 27.3025 291.951C28.7376 294.694 28.8439 295.419 28.6845 299.041C28.525 302.561 28.6845 303.389 29.9069 305.821C33.1491 312.29 42.4505 317 51.9644 317C61.1595 316.948 68.6537 313.325 72.4805 306.96C73.4372 305.355 74.5534 304.372 76.2542 303.596C79.3901 302.147 82.6854 298.783 84.3862 295.263C85.5024 292.986 85.8213 291.434 85.9276 287.5L86.1402 282.635L88.9572 279.892C98.8964 270.214 96.1325 251.376 83.9079 245.321C82.8449 244.803 80.4 244.286 78.2208 244.13C75.6696 243.975 74.3408 243.665 74.3408 243.251C74.3408 242.94 74.8191 241.284 75.4038 239.68C77.9019 232.486 78.6991 224.102 77.2641 219.392C75.2444 212.768 67.4844 208.42 61.5315 210.542ZM68.2816 217.063C70.2482 218.202 72.2148 222.032 72.2148 224.619C72.2148 227.259 71.0455 232.486 67.9627 243.509C65.3052 253.136 64.7205 256.965 65.9962 256.965C66.3151 256.965 67.2186 256.137 67.9096 255.102C70.8329 250.962 76.6263 249.461 81.0909 251.687C85.9808 254.171 88.6914 261.002 87.5753 267.886C86.2997 275.493 81.7819 279.064 76.9452 276.27C75.6696 275.545 75.4038 275.028 75.4038 273.268C75.3507 270.887 74.2876 267.627 73.0652 266.333C72.0553 265.246 71.949 262.037 72.7994 258.725C73.8624 254.637 72.0553 255.206 70.0356 259.605C69.3446 261.002 68.6005 262.141 68.3348 262.141C68.1222 262.141 65.1457 260.795 61.7441 259.139C55.6849 256.241 55.5255 256.189 51.0077 256.189C47.2872 256.241 46.0115 256.448 44.0981 257.431C41.2811 258.88 36.7102 262.969 34.1058 266.385C33.096 267.782 32.0861 268.765 31.8735 268.61C31.6077 268.507 31.2888 259.812 31.0762 249.358C30.9168 238.852 30.5447 228.76 30.3321 226.845C29.8538 222.653 30.3321 220.634 32.1392 219.237C33.9464 217.839 35.8066 217.891 38.4642 219.34C41.4937 220.996 42.6099 224.567 44.2044 238.127C45.5332 249.151 46.2241 251.738 48.2439 252.773C49.4663 253.446 49.9447 252.98 49.5726 251.583C49.4132 250.91 50.3167 248.374 51.9644 244.907C54.8345 238.955 58.3425 228.501 59.4586 222.549C60.5748 216.649 64.0296 214.527 68.2816 217.063ZM54.5688 263.124C58.4488 264.263 63.7638 267.109 66.5277 269.49C68.8663 271.457 69.2915 273.578 67.7501 275.856C65.9962 278.443 63.8701 279.271 59.4055 279.116C55.8444 278.961 54.7814 278.702 50.9545 276.787C48.5096 275.597 46.3305 274.717 46.0647 274.872C45.5332 275.183 46.3305 276.787 48.4033 279.375C50.2636 281.6 50.051 282.17 46.7025 283.619C44.2576 284.706 44.0981 285.068 45.7458 286.155C47.4466 287.345 49.8915 287.19 52.7617 285.689C54.1436 284.964 55.7381 284.395 56.2696 284.395C56.8543 284.395 58.4488 285.585 59.8838 287.034C61.3721 288.535 62.754 289.57 63.0729 289.363C63.3918 289.208 63.7638 288.173 63.9764 287.086C64.2422 285.378 64.5611 285.016 66.2619 284.447C67.3249 284.084 69.2383 283.101 70.514 282.221L72.7994 280.669L75.829 281.963L78.8586 283.308L79.018 286.413C79.2306 290.502 77.6893 294.073 74.5002 296.816C72.1085 298.886 68.9194 300.283 63.126 301.836C61.4252 302.302 59.9901 302.871 59.9901 303.13C59.9901 303.389 60.9469 304.01 62.1162 304.476C63.2855 304.941 64.2422 305.614 64.2422 305.925C64.2422 306.235 62.9666 307.167 61.4784 307.943C59.0334 309.237 58.0236 309.444 53.0806 309.651C46.8088 309.91 43.4603 309.03 39.2614 306.08C37.4012 304.786 35.0625 301.267 35.6472 300.698C35.7535 300.594 37.1354 301.06 38.7299 301.733C42.7694 303.44 46.9151 304.217 49.6789 303.803C52.5491 303.389 52.6554 302.716 50.051 301.681C44.0981 299.3 40.9091 297.385 37.6138 294.228C34.7436 291.485 33.8932 290.295 33.2023 288.07C31.7672 283.308 32.1924 281.342 36.1255 275.028C40.6965 267.679 44.0981 264.314 48.2439 262.865C50.7419 261.986 50.8482 261.986 54.5688 263.124Z" fill="black"/>
<path d="M297.119 210.238C294.025 211.152 289.685 215.191 288.837 217.932C287.64 221.826 287.69 225.769 289.037 231.827C289.735 235.001 290.334 238.126 290.334 238.799C290.334 240.242 289.436 241.877 285.694 247.214C283.25 250.724 282.651 251.301 281.454 251.301C279.009 251.301 275.517 252.551 273.372 254.186C269.829 256.878 267.584 261.735 266.437 269.14C264.591 280.583 271.576 295.489 280.605 299.48C282.601 300.345 283.998 300.586 287.59 300.634C291.531 300.634 292.479 300.826 295.073 302.076C297.717 303.326 298.615 303.471 302.656 303.471C306.548 303.471 307.446 303.663 308.643 304.528C313.183 307.75 318.621 309.24 324.208 308.856C331.392 308.375 336.181 305.634 338.776 300.537C340.222 297.701 340.472 296.787 340.472 293.421C340.522 290.104 340.721 289.19 341.819 287.363C342.567 286.161 343.415 284.574 343.665 283.853C344.513 281.785 344.313 276.112 343.415 273.9C342.617 272.025 342.667 271.832 343.515 269.909C344.962 266.88 344.862 259.09 343.365 255.965C339.873 248.704 331.642 244.089 321.614 243.848C319.219 243.8 317.124 243.656 317.024 243.512C316.875 243.367 317.373 241.684 318.072 239.713C319.668 235.386 320.217 228.654 319.269 224.807C317.473 217.355 312.933 212.402 306.198 210.335C302.656 209.325 300.411 209.277 297.119 210.238ZM306.947 217.932C309.441 219.663 311.487 222.403 312.385 225.336C313.233 228.125 313.083 235.097 312.085 240.001C311.087 244.906 311.087 248.368 312.085 250.82C312.983 252.984 313.283 253.128 314.48 251.83C315.677 250.532 320.866 250.051 324.907 250.82C333.288 252.359 337.678 256.542 337.728 262.985C337.728 267.889 335.832 270.438 330.544 272.698C323.41 275.727 312.933 274.044 310.439 269.428C309.341 267.36 309.441 264.476 310.638 262.937C313.283 259.427 320.666 258.177 325.505 260.437C328.299 261.735 329.297 261.254 327.75 259.331C326.453 257.792 326.802 257.071 328.798 257.071C330.494 257.071 330.644 256.446 329.197 255.436C328.349 254.907 326.802 254.811 321.364 254.955C317.573 255.099 313.582 255.436 312.385 255.724C309.291 256.494 306.498 258.609 305.051 261.35C303.405 264.524 303.105 266.88 304.003 270.053C304.801 272.986 304.652 273.467 301.958 276.496C301.06 277.554 300.311 278.564 300.311 278.804C300.311 279.045 301.01 279.333 301.808 279.525C303.504 279.814 304.003 280.487 304.552 283.276C304.702 284.286 305.201 285.776 305.65 286.545C306.298 287.844 306.298 288.18 305.5 290.2C305.001 291.402 304.452 293.373 304.303 294.575C304.053 296.595 303.953 296.787 302.207 297.172C300.81 297.508 299.813 297.412 298.066 296.739C294.624 295.489 292.629 293.566 291.082 290.007C290.284 288.276 289.486 286.882 289.286 286.882C288.638 286.882 287.74 290.632 288.089 291.738C288.538 293.037 287.54 294.094 285.844 294.094C282.052 294.094 276.914 288.276 274.519 281.353C272.274 274.573 272.873 265.822 276.016 261.35C277.163 259.667 280.556 257.552 281.154 258.129C281.304 258.321 281.553 259.619 281.653 261.014C281.952 265.197 282.801 268.226 284.347 270.871C286.842 275.102 287.241 274.477 287.141 266.062C287.091 257.263 287.64 255.484 292.629 249.089C295.921 244.762 297.318 241.588 297.318 238.174C297.318 237.165 296.719 233.895 296.021 230.962C294.524 224.711 294.574 220.72 296.121 219.037C299.114 215.768 303.155 215.383 306.947 217.932ZM336.98 280.15C336.98 283.083 336.231 284.334 333.338 286.545C330.843 288.373 328.199 288.95 322.761 288.709C317.523 288.469 315.128 287.603 312.335 284.959C310.638 283.324 310.239 281.016 311.437 279.525C311.985 278.804 312.285 278.804 314.63 279.381C321.015 281.016 327.251 280.727 332.689 278.516C336.63 276.881 336.98 277.025 336.98 280.15ZM315.777 293.854C320.317 295.152 325.256 295.393 330.444 294.575C332.091 294.335 333.537 294.239 333.687 294.335C333.787 294.479 333.487 295.585 332.939 296.835C332.29 298.374 331.292 299.576 329.796 300.586C327.8 301.932 327.401 302.028 322.861 302.028C318.671 302.028 317.673 301.884 315.577 300.826C311.636 298.855 309.99 296.21 311.087 293.421C311.437 292.508 310.838 292.412 315.777 293.854Z" fill="black"/>
<path d="M350.1 105.611C347.855 106.236 345.76 107.967 343.415 111.092C339.923 115.708 333.088 123.642 331.841 124.603C330.694 125.373 330.544 125.373 327.65 124.122C325.156 123.017 323.859 122.824 320.067 122.728C315.777 122.68 315.428 122.584 313.532 121.141C307.296 116.333 296.819 116.093 290.034 120.564C287.49 122.247 286.093 123.834 283.898 127.536L282.252 130.373L279.059 127.392C273.471 122.151 266.986 119.939 260.5 120.997C255.511 121.814 251.321 123.834 247.978 127.2C244.386 130.71 242.64 135.181 243.089 139.701C243.688 146.144 247.13 149.222 257.158 152.443C259.403 153.116 262.047 154.366 263.045 155.184C264.94 156.674 267.185 160.425 268.383 164.031C269.829 168.503 273.87 175.715 276.764 178.985C279.658 182.302 279.707 182.447 279.957 185.812C280.456 192.159 283.798 196.631 290.833 200.285C301.409 205.719 313.382 205.815 324.557 200.478C331.193 197.304 335.433 191.871 336.082 185.572C336.381 183.024 336.581 182.639 338.726 180.764C341.669 178.215 343.665 174.561 345.71 168.118C346.608 165.329 347.756 161.675 348.304 159.944C349.651 155.665 352.695 149.558 354.74 146.962C359.13 141.432 363.969 134.412 365.466 131.431C368.609 125.084 368.958 117.391 366.314 112.438C363.371 106.861 356.187 103.832 350.1 105.611ZM356.386 113.015C360.627 114.698 361.675 120.66 358.831 127.104C357.135 130.902 354.491 134.989 349.751 140.951C346.409 145.183 342.867 151.722 341.27 156.578C340.721 158.309 339.374 162.54 338.227 166.05C334.834 176.629 332.49 178.84 323.859 179.61C321.315 179.802 319.12 180.139 318.97 180.283C318.371 180.86 320.965 182.399 324.258 183.408L327.75 184.514V186.437C327.75 189.947 322.562 194.083 315.977 195.765C312.085 196.775 303.504 196.775 299.613 195.765C294.475 194.467 288.488 190.38 288.288 188.072C288.238 187.688 288.189 187.111 288.139 186.774C288.089 186.341 289.536 186.197 293.078 186.149C299.114 186.101 301.309 185.524 305.35 182.879C308.543 180.812 309.79 179.514 309.142 178.888C308.942 178.696 306.697 178.985 304.103 179.562C295.373 181.485 289.785 180.668 285.195 176.725C281.903 173.936 279.358 170.041 276.365 163.021C272.923 154.847 272.174 153.501 269.78 151.001C267.285 148.404 264.591 146.865 260.151 145.567C252.219 143.211 249.575 140.567 250.872 136.335C251.67 133.835 254.364 130.95 257.307 129.556C259.153 128.69 260.5 128.45 263.643 128.45C269.231 128.45 272.324 129.94 277.363 135.085C285.794 143.692 286.792 144.654 287.39 144.461C287.789 144.317 288.039 143.019 288.089 140.663C288.288 134.076 291.381 128.258 295.921 126.094C301.908 123.209 309.291 125.469 312.285 131.094C315.378 136.912 314.48 146.096 310.289 152.058C307.495 155.905 303.953 157.059 300.162 155.328C297.418 154.078 296.121 151.674 295.871 147.539C295.672 143.259 296.27 141.144 298.615 137.778C300.511 135.037 300.311 134.027 298.116 134.989C296.57 135.71 295.821 135.085 295.821 133.114C295.821 131.864 295.223 131.768 294.325 132.777C293.177 134.076 290.234 146 290.234 149.366C290.134 158.694 299.314 165.089 308.493 162.108C310.688 161.386 310.738 161.386 313.083 162.781C314.33 163.598 316.575 164.464 318.022 164.8C326.054 166.531 334.585 159.607 337.479 149.125C338.676 144.75 338.576 138.259 337.229 134.556L336.132 131.479L337.878 129.748C339.374 128.209 343.365 123.401 349.352 115.852C350.749 114.073 353.144 112.39 354.341 112.342C354.54 112.342 355.488 112.631 356.386 113.015ZM324.757 131.431C328.898 133.066 331.242 136.72 331.242 141.673C331.242 150.183 326.104 158.021 320.516 158.021C319.07 158.021 316.126 156.722 316.376 156.194C316.475 156.001 317.124 154.751 317.872 153.453C320.018 149.462 320.916 145.76 320.965 140.47C321.015 137.826 320.816 134.412 320.616 132.873L320.167 130.085L321.614 130.421C322.362 130.614 323.809 131.046 324.757 131.431Z" fill="black"/>
<path d="M151.543 218.605C149.398 219.711 148.201 221.249 146.455 225L145.208 227.74L142.963 226.202C138.522 223.221 132.586 223.99 129.443 227.933C127.248 230.673 126.599 233.558 126.449 241.204L126.3 248.176L123.706 254.859C121.061 261.687 119.714 266.591 119.714 269.62C119.714 270.774 119.365 271.688 118.517 272.409C116.372 274.381 115.075 277.987 115.324 281.545C115.823 289.575 122.658 297.027 131.837 299.383C138.522 301.114 142.763 300.201 147.502 295.873C150.147 293.469 150.296 293.373 153.639 293.229C157.879 292.988 159.925 293.614 163.267 296.21C168.555 300.393 172.497 301.355 177.186 299.672C179.431 298.855 179.631 298.855 181.876 299.672C186.715 301.451 190.407 300.537 195.545 296.306C198.888 293.565 200.684 292.988 205.323 293.229C208.915 293.373 209.065 293.469 210.911 295.345C213.356 297.893 214.902 298.855 218.095 299.672C221.487 300.537 223.084 300.537 226.726 299.624C233.411 297.941 238.849 293.806 241.792 288.18C244.835 282.314 244.636 278.035 241.044 273.178C239.896 271.64 239.198 270.101 239.098 268.851C238.749 265.293 237.851 261.687 236.105 257.071C232.912 248.753 232.862 248.464 232.513 240.434C232.164 233.27 232.064 232.452 230.767 229.952C227.773 224.038 221.238 222.644 215.551 226.731C214.154 227.692 213.755 227.788 213.555 227.211C213.455 226.827 212.557 225.048 211.56 223.221C210.113 220.48 209.364 219.663 207.568 218.749C204.775 217.355 200.534 217.258 198.04 218.557C194.049 220.576 191.804 226.202 192.302 232.789L192.602 236.636L189.708 237.838C188.112 238.511 185.119 240.146 183.073 241.444L179.331 243.896L176.837 242.069C175.49 241.059 172.596 239.376 170.401 238.367L166.46 236.588L166.41 231.058C166.36 225.961 166.261 225.384 164.864 222.692C162.918 218.989 160.723 217.643 156.383 217.691C154.387 217.691 152.791 217.98 151.543 218.605ZM158.528 224.038C160.573 226.106 161.272 231.395 159.975 234.857C159.426 236.203 158.777 236.684 155.535 238.03C149.249 240.675 144.459 245.002 143.012 249.426C142.514 250.82 142.264 252.022 142.414 252.166C142.514 252.311 144.26 250.772 146.255 248.801C151.244 243.896 155.335 241.925 160.623 241.925C163.866 241.925 164.814 242.165 167.757 243.56C172.048 245.627 175.889 248.897 176.338 250.868C176.787 252.743 175.54 254.667 173.894 254.667C173.245 254.667 171.299 254.042 169.553 253.272C167.807 252.503 165.961 251.782 165.512 251.589C165.013 251.445 164.614 250.868 164.614 250.291C164.614 249.089 164.215 249.185 159.775 251.589C151.893 255.821 148.899 263.418 152.392 270.342C154.138 273.804 156.981 275.919 164.814 279.67C168.206 281.304 171.848 283.324 172.846 284.141C174.841 285.728 176.538 288.757 176.588 290.777C176.588 292.652 174.792 294.575 173.045 294.575C171.2 294.575 170.102 294.046 166.61 291.402C161.521 287.555 159.975 287.315 149.648 288.661C144.509 289.286 142.863 289.334 140.169 288.853C138.373 288.565 136.277 288.18 135.429 288.036L133.933 287.796L135.729 289.382C136.726 290.248 138.722 291.402 140.119 291.883C143.012 292.892 142.963 293.614 139.82 294.623C134.082 296.45 125.502 292.171 122.009 285.776C120.313 282.651 119.964 280.679 120.812 278.708L121.51 277.073L123.157 279.333C124.853 281.737 126.05 282.074 125.801 280.102C125.701 279.477 125.601 276.352 125.551 273.178C125.452 266.88 125.102 268.226 130.441 254.426C132.237 249.858 132.336 249.233 132.686 241.925C133.085 233.655 133.434 232.068 135.429 230.818C136.527 230.145 136.926 230.096 138.223 230.673C141.566 231.972 142.065 236.491 139.42 241.925C137.425 246.156 136.078 250.243 136.627 250.532C137.375 251.012 147.303 235.722 149.747 230.385C151.094 227.452 152.741 224.615 153.439 223.99C155.086 222.596 157.181 222.644 158.528 224.038ZM205.224 223.653C205.872 224.086 207.169 226.154 208.217 228.365C211.061 234.424 212.058 236.155 216.948 243.367C221.388 249.906 222.485 251.157 222.485 249.714C222.485 248.849 220.49 243.752 218.793 240.242C217.247 237.068 217.197 235.866 218.494 233.174C219.641 230.722 221.188 229.856 223.084 230.577C225.528 231.443 226.077 233.462 226.476 242.165L226.825 250.099L229.47 256.83C230.866 260.533 232.413 264.427 232.812 265.485C233.66 267.649 233.96 275.054 233.311 279.045C232.812 282.362 233.76 282.458 235.855 279.381C237.252 277.362 237.402 277.265 237.901 278.179C239.497 280.968 237.202 287.171 233.361 290.488C229.12 294.191 222.834 295.873 218.743 294.383C217.496 293.902 216.498 293.373 216.498 293.181C216.498 293.037 217.945 292.267 219.691 291.546C222.784 290.2 224.93 288.613 224.331 288.036C224.181 287.892 222.635 288.084 220.889 288.517C216.947 289.478 214.503 289.478 208.766 288.565C203.328 287.699 199.786 287.651 197.491 288.373C196.543 288.709 193.999 290.2 191.853 291.738C187.613 294.768 185.767 295.248 183.672 293.806C182.824 293.229 182.574 292.604 182.574 290.921C182.574 289.719 182.874 288.18 183.273 287.411C184.52 285.103 188.062 282.506 193.001 280.247C201.831 276.256 204.775 273.996 206.82 269.813C209.065 265.245 208.117 259.427 204.475 255.436C202.879 253.705 196.044 249.378 194.897 249.378C194.797 249.378 194.498 249.906 194.348 250.58C194.148 251.253 193.699 251.782 193.3 251.782C192.851 251.782 191.205 252.407 189.559 253.224C184.819 255.532 182.375 255.003 182.474 251.637C182.474 250.435 183.073 249.618 185.218 247.647C194.797 239.04 204.725 239.953 214.204 250.243C217.147 253.513 217.796 252.551 215.551 248.224C213.256 243.752 208.716 239.809 203.677 237.934C200.584 236.78 199.686 236.203 199.187 235.097C198.439 233.414 198.389 228.606 199.037 226.202C199.935 223.221 202.729 222.067 205.224 223.653ZM168.755 259.475C172.247 261.11 174.193 261.254 177.086 260.148C178.982 259.427 179.331 259.427 181.876 260.196C185.218 261.206 186.815 261.014 191.604 258.994C194.847 257.6 195.396 257.504 197.092 257.984C200.983 259.09 202.879 263.514 201.133 267.264C199.985 269.861 199.037 270.486 191.155 274.332C187.813 276.015 183.871 278.179 182.474 279.237C181.028 280.247 179.681 281.112 179.481 281.112C179.282 281.112 178.034 280.343 176.737 279.381C175.44 278.419 171.698 276.352 168.406 274.765C161.721 271.544 158.977 269.668 157.879 267.601C155.485 263.177 159.326 257.023 164.016 257.792C164.914 257.936 167.009 258.706 168.755 259.475Z" fill="black"/>
<path d="M181.277 146.817C183.023 150.231 184.969 154.174 185.568 155.616C187.513 160.088 188.96 161.05 190.008 158.598C190.507 157.492 190.407 156.867 189.509 154.895C187.713 150.952 184.719 146.385 182.025 143.452C177.885 138.98 177.685 139.942 181.277 146.817Z" fill="black"/>
<path d="M189.06 141.769C189.06 142.682 196.543 156.674 197.69 157.876C198.938 159.223 199.836 159.271 200.534 158.021C201.133 156.963 200.035 154.511 196.693 149.462C193.3 144.365 189.06 140.086 189.06 141.769Z" fill="black"/>
<path d="M170.352 144.606C170.551 145.183 171.1 147.058 171.649 148.837C173.295 154.511 175.291 158.982 176.238 159.271C177.286 159.607 178.583 158.694 178.583 157.684C178.583 156.386 174.991 149.222 172.946 146.337C170.95 143.548 169.753 142.778 170.352 144.606Z" fill="black"/>
<path d="M371.353 153.02C369.457 153.934 368.16 156.001 368.16 158.213C368.16 159.511 368.559 160.425 369.856 161.771C371.403 163.406 371.802 163.55 374.147 163.55C376.492 163.55 376.891 163.406 378.437 161.771C380.383 159.704 380.632 157.924 379.335 155.376C378.537 153.693 376.092 152.251 374.047 152.251C373.448 152.251 372.201 152.587 371.353 153.02ZM377.639 154.895C380.333 157.54 378.587 162.011 374.546 162.637C373.099 162.877 372.5 162.685 371.203 161.579C369.058 159.704 368.659 157.299 370.156 155.472C372.251 152.924 375.344 152.683 377.639 154.895Z" fill="black"/>
<path d="M373.648 155.857C373.648 157.444 373.548 157.54 371.902 157.54C370.954 157.54 370.156 157.732 370.156 158.021C370.156 158.261 370.954 158.501 371.902 158.501C373.548 158.501 373.648 158.598 373.648 160.184C373.648 161.098 373.897 161.867 374.147 161.867C374.446 161.867 374.646 161.098 374.646 160.184C374.646 158.598 374.746 158.501 376.392 158.501C377.34 158.501 378.138 158.261 378.138 158.021C378.138 157.732 377.34 157.54 376.392 157.54C374.746 157.54 374.646 157.444 374.646 155.857C374.646 154.943 374.446 154.174 374.147 154.174C373.897 154.174 373.648 154.943 373.648 155.857Z" fill="black"/>
<path d="M379.136 163.214C379.136 163.887 382.578 166.868 382.977 166.531C383.127 166.339 382.528 165.425 381.63 164.512C379.984 162.877 379.136 162.444 379.136 163.214Z" fill="black"/>
<path d="M130.84 260.533C130.041 261.494 128.295 267.168 127.946 269.909C127.697 271.928 127.747 272.457 128.295 272.457C129.044 272.457 133.184 262.793 133.184 261.014C133.184 259.812 131.688 259.523 130.84 260.533Z" fill="black"/>
<path d="M136.826 262.937C135.529 264.331 134.531 266.255 133.534 269.332C131.638 275.294 132.087 275.919 135.08 271.351C138.523 266.062 139.82 263.322 139.121 262.552C138.323 261.639 138.024 261.687 136.826 262.937Z" fill="black"/>
<path d="M140.668 269.332C138.822 271.928 137.225 275.246 137.176 276.496C137.176 277.362 137.225 277.362 138.123 276.592C140.269 274.717 144.759 268.563 144.459 267.889C143.911 266.495 142.264 267.12 140.668 269.332Z" fill="black"/>
<path d="M225.778 260.677C225.528 261.302 226.875 264.908 229.819 271.832C230.318 273.034 230.966 272.409 230.966 270.774C230.966 268.514 230.018 264.476 228.921 262.023C227.973 259.86 226.376 259.186 225.778 260.677Z" fill="black"/>
<path d="M219.941 262.648C219.342 263.322 219.642 264.043 221.737 267.937C223.134 270.438 224.73 273.082 225.379 273.804L226.526 275.102L226.277 272.505C225.927 268.899 222.385 261.879 220.988 261.879C220.789 261.879 220.29 262.216 219.941 262.648Z" fill="black"/>
<path d="M215.002 267.409C214.154 268.418 214.603 269.284 218.245 273.467C220.29 275.823 221.288 276.689 221.388 276.112C221.737 274.573 217.197 266.687 216 266.687C215.8 266.687 215.351 267.024 215.002 267.409Z" fill="black"/>
</svg>
