<?xml version="1.0" encoding="utf-8"?>
<!-- Generator: Adobe Illustrator 26.1.0, SVG Export Plug-In . SVG Version: 6.00 Build 0)  -->
<svg version="1.1" id="Camada_1" xmlns="http://www.w3.org/2000/svg" xmlns:xlink="http://www.w3.org/1999/xlink" x="0px" y="0px"
	 viewBox="0 0 383 317" style="enable-background:new 0 0 383 317;" xml:space="preserve">
<style type="text/css">
	.st0{fill:#11FFA9;}
</style>
<path d="M341.1,107.1c-1.1-1.5-1.8-3.1-1.9-4.3c-0.3-3.6-1.2-7.2-3-11.8c-3.2-8.3-3.2-8.6-3.6-16.6c-0.3-7.2-0.4-8-1.7-10.5
	c-3-5.9-9.5-7.3-15.2-3.2c-1.4,1-1.8,1.1-2,0.5c-0.1-0.4-1-2.2-2-4c-1.4-2.7-2.2-3.6-4-4.5c-2.8-1.4-7-1.5-9.5-0.2
	c-4,2-6.2,7.6-5.7,14.2l0.3,3.8l-2.9,1.2c-1.6,0.7-4.6,2.3-6.6,3.6l-3.7,2.5l-2.5-1.8c-1.3-1-4.2-2.7-6.4-3.7l-3.9-1.8l0-5.5
	c-0.1-5.1-0.1-5.7-1.5-8.4c-1.9-3.7-4.1-5-8.5-5c-2,0-3.6,0.3-4.8,0.9c-2.1,1.1-3.3,2.6-5.1,6.4l-1.2,2.7l-2.2-1.5
	c-4.4-3-10.4-2.2-13.5,1.7c-2.2,2.7-2.8,5.6-3,13.3l-0.1,7l-2.6,6.7c-2.6,6.8-4,11.7-4,14.8c0,1.2-0.3,2.1-1.2,2.8
	c-2.1,2-3.4,5.6-3.2,9.1c0.5,8,7.3,15.5,16.5,17.8c6.7,1.7,10.9,0.8,15.7-3.5c2.6-2.4,2.8-2.5,6.1-2.6c4.2-0.2,6.3,0.4,9.6,3
	c5.3,4.2,9.2,5.1,13.9,3.5c2.2-0.8,2.4-0.8,4.7,0c4.8,1.8,8.5,0.9,13.7-3.4c3.3-2.7,5.1-3.3,9.8-3.1c3.6,0.1,3.7,0.2,5.6,2.1
	c2.4,2.5,4,3.5,7.2,4.3c3.4,0.9,5,0.9,8.6,0c6.7-1.7,12.1-5.8,15.1-11.4C344.9,116.2,344.7,112,341.1,107.1z M301.2,101.2
	c-1.1,2.6-2.1,3.2-10,7.1c-3.3,1.7-7.3,3.8-8.7,4.9c-1.4,1-2.8,1.9-3,1.9c-0.2,0-1.4-0.8-2.7-1.7s-5-3-8.3-4.6
	c-6.7-3.2-9.4-5.1-10.5-7.2c-2.4-4.4,1.4-10.6,6.1-9.8c0.9,0.1,3,0.9,4.7,1.7c3.5,1.6,5.4,1.8,8.3,0.7c1.9-0.7,2.2-0.7,4.8,0
	c3.3,1,4.9,0.8,9.7-1.2c3.2-1.4,3.8-1.5,5.5-1C301,93,302.9,97.4,301.2,101.2z"/>
<path d="M319.7,216.7c-1.4-4.2-3.7-7.3-7.1-9.7c-2.1-1.4-3.1-2.4-4-4.1c-1.6-2.9-4.4-5.7-7.1-7.2c-1.1-0.6-4.1-1.7-6.6-2.4
	c-3-0.9-5.3-1.9-6.7-2.8c-4.2-2.9-11.8-4.4-17.6-3.5c-5.8,0.9-11.3,5.1-14.2,10.7c-1.1,2.3-1.9,3.2-3,3.8c-2,1.1-5.4,4.6-6.8,7
	c-1.7,3-2.4,6.3-2.3,11c0.1,7.4,1.8,14.7,4.7,19.9c1.7,3.1,6.6,8,11.1,11.1l3.1,2.1l0,2.7c0,5.1,2.8,9.8,8.1,13.3
	c10.8,7.2,26.5,6.7,34-1c2.6-2.7,3.6-5.6,3.3-9.9l-0.2-2.8l3-3.2c3.6-4,6.6-9.8,8.3-16.2c0.9-3.5,1.1-5.2,1.1-9.9
	C320.7,220.7,320.6,219.7,319.7,216.7z"/>
<path d="M-97.5,0.3c-8.1,1.6-15.6,6.2-21.3,12.7c-1.5,1.7-2.9,3.2-3.2,3.2c-0.3,0-2-0.7-3.7-1.5c-7.5-3.7-16.7-1-20.7,5.9
	c-1.2,2.1-1.4,3.1-1.4,5.9c0,3.8,0.9,6,4.1,10.1c2.6,3.4,3.2,5.3,2.8,10.3c-0.1,2.3-0.4,7.4-0.6,11.3c-0.3,6.8-0.4,7.3-1.7,9.4
	c-6.8,10.3,1.6,24.7,16.9,29c2.8,0.8,9.7,1,12,0.3c0.8-0.2,2.3,0,4.5,0.9c2.7,1,4.1,1.2,9,1.2c7.2,0,9.2-0.7,13.9-5.4
	c2.2-2.2,3.9-3.5,5.3-3.9c8.6-2.6,15.8-10.4,19.5-21.1c2.6-7.4,3.7-10,6.3-13.8c6.9-10,8.3-13.5,8.3-19.6c0-3.6-1-6.7-3.1-9.7
	c-1.1-1.6-1.2-2-0.8-3.8c0.6-2.5,0.2-6.8-0.9-9.4c-1.6-4-7.2-7.3-12.5-7.3c-1.5,0-2.7-0.4-4.3-1.4c-3.5-2.2-5.4-2.6-11.1-2.3
	c-4,0.3-5.5,0.2-7.3-0.4C-90,0.1-94.8-0.3-97.5,0.3z M-92.7,7.4c0,0.2-1.2,1.5-2.8,3c-3.7,3.5-6.7,7.6-9.1,12.5c-2.5,5-3,7-1.8,7.5
	c1.1,0.4,1.9-0.4,7.6-6.8c9.6-11,15.5-15.3,21.2-15.3c3.6,0,5.4,1.2,6.3,4.1c0.5,1.9,0.5,2.2-0.2,2.7c-6.9,4.7-8.3,6.2-14.2,14.5
	c-3.9,5.6-6.2,9.5-5.8,9.9c0.9,0.9,3.3-1.1,11.4-8.7c4.8-4.6,9.2-8.6,9.8-8.8c0.6-0.3,1.8-0.5,2.8-0.5c5.2,0,6.8,6.8,3.3,13.8
	c-1.5,2.9-2.9,4.7-9.6,12c-4.7,5.1-7.1,8.9-11.3,17.2c-3.2,6.4-3.9,7.5-7.4,10.9c-5.6,5.4-9.3,7.1-17.2,7.7
	c-3.3,0.3-6.1,0.6-6.4,0.8c-0.8,0.5,0.4,1.5,2.8,2.4c1.2,0.4,2.2,1.1,2.2,1.4c0,1-3.9,2.7-6.6,3c-2.7,0.2-8.3-0.8-10.8-2
	c-2.2-1.2-5.7-4.1-7.4-6.4c-2-2.7-3-6.7-2.1-8.3l0.6-1.1l1.5,1.4c2.1,1.9,6.1,3.9,7.9,3.9c0.8,0,1.4-0.1,1.4-0.3
	c0-0.1-1.2-1.5-2.7-3.1c-1.5-1.5-3.4-4-4.1-5.5c-1.1-2.4-1.3-3.4-1.2-7.5c0-2.6,0.4-7.5,0.9-11c1.2-9.1,0.4-12.4-4.5-19.1
	c-2.5-3.4-2.9-5.8-1.4-8.3c2.1-3.5,8.4-4.3,12.6-1.6c2.3,1.5,2.3,1.8,1.3,5.5c-0.8,3-0.9,6.6-0.2,7.7c0.7,1.1,1.9-0.3,4.5-4.9
	c6.8-12.5,13.2-18.9,21.8-21.8C-96.6,7.1-92.7,6.7-92.7,7.4z M-60.5,13.2c0.6,0.4,1.3,1.3,1.6,1.9c0.5,1,0.7,3.5,0.3,3.5
	c-0.1,0-1.4-0.9-3-2c-2.5-1.8-3.3-3.1-2.4-3.9C-63.3,12.1-61.5,12.3-60.5,13.2z M-54.6,35.9c0,3.8-1.2,6.5-6.2,13.9
	c-3.7,5.5-5.4,9-7.2,14.4c-4.4,13.2-11.1,19.9-22.7,22.6c-2.3,0.6-4.4,1.2-4.7,1.4c-0.2,0.2,0,0.8,0.7,1.3l1.2,0.9l-1.5,0.8
	c-0.8,0.4-2.2,0.9-3.1,1.1c-2.2,0.4-7-0.1-7-0.9c0-0.3,0.5-1.4,1.2-2.4c1-1.4,1.8-1.9,4.1-2.5c5.1-1.4,7.5-2.8,12-7.1
	c3.5-3.3,6.5-7.8,10.6-16c3.1-6.1,3.9-7.4,8.5-12.3c8.1-8.8,11-13.1,12.5-18.3c0.5-1.9,0.6-2,1.1-1.2
	C-54.8,32.3-54.5,34.2-54.6,35.9z"/>
<path d="M-117.8,43.4c-1.1,0.2-3,4.3-4.1,8.5c-0.9,3.7-1.2,8.6-0.5,8.9c0.2,0.1,1.2-2,2.2-4.8c1-2.8,2.5-6.5,3.2-8.4
	c1.2-2.7,1.3-3.4,0.7-3.8C-116.6,43.5-117.3,43.3-117.8,43.4z"/>
<path d="M-110,49c-1.1,1.2-2.4,2.8-3,3.8c-1.8,2.8-4.2,9.1-4,10.5c0.1,1.1,0.9,0.2,5.2-6.1c2.8-4,5.1-7.6,5.2-7.9
	C-106.3,46.4-107.4,46.3-110,49z"/>
<path d="M-105.2,58.4c-3.7,3.6-7.4,9.8-5.5,9.1c0.2-0.1,2.9-2.5,6-5.3c5.7-5.2,6.4-6.6,3.6-6.6C-102,55.6-103.2,56.4-105.2,58.4z"/>
<path d="M-345.2,0.3c-2.7,0.8-7.4,3.6-10.4,6.1c-2,1.6-3.4,2.5-4,2.3c-0.4-0.1-2.1,0.1-3.7,0.6c-2.4,0.7-3.4,1.3-6.7,4.5
	c-4.5,4.4-7.6,9.7-10,17.2c-2.4,7.6-2.7,10.2-2.7,20.9c0,11,0.4,13.3,3.5,20.8c1.5,3.8,1.7,4.5,1.4,7.3c-0.3,2.7-0.1,3.4,1,6.1
	c3.3,7.2,13.3,12.6,24.3,13.4c10.8,0.7,19.2-3.7,21-10.9c0.5-2.2,0.7-2.5,2.3-3c5.1-1.6,12.9-6.5,16.5-10.4
	c4.5-4.9,6.3-10.1,5.1-14.8c-0.3-1.2-2.1-4.9-4.1-8.1l-3.5-5.9l0.8-2.3c1.1-3.1,0.8-7.1-1.1-12.5c-2.3-6.4-5.1-9.3-11-11.4
	c-5-1.8-5-1.8-4.7-6.2c0.4-6-1.8-10.6-6.3-12.8C-339.4,0.2-343.5-0.3-345.2,0.3z M-339.7,7.3c2,1.6,2.7,4,1.9,6.9
	c-0.4,1.7-1.5,3.1-5.5,7.1c-5.3,5.3-7.4,8.7-8.4,13.6c-0.3,1.5-1.1,3.8-1.7,5.3c-0.6,1.4-1.2,2.6-1.2,2.8c0,0.1,1,0.1,2.3,0
	c2.1-0.1,2.4-0.3,2.7-1.6c0.1-0.8,1.3-3.5,2.6-6c2.8-5.5,9-12,11.3-12c2,0,10.6,4,11.8,5.5c1.4,1.7,3.6,8.4,3.6,10.9
	c0,2.6-1.3,3.8-4.2,3.8c-4.9,0-7.5-2.9-9.6-10.5c-0.1-0.5-0.3-0.5-0.9,0c-0.4,0.3-0.7,0.9-0.7,1.2c0,0.3-0.3,1-0.6,1.4
	c-0.6,0.8-0.8,0.7-3.1-1.1c-1.3-1.1-2.6-1.8-2.9-1.6c-0.2,0.1-0.3,1-0.1,1.9c1,5.4,1.1,4.8-1.6,6.7c-1.6,1.1-2.4,2-2.2,2.5
	c0.1,0.4,0.5,0.7,0.9,0.7c1.1,0,1.6,1.2,2.2,5c0.6,4.2,2,7.4,5.8,12.9c1.2,1.8,2.3,3.6,2.4,3.8c0.3,0.8,2-0.4,2.2-1.5
	c0.1-0.5,0.5-1.3,0.9-1.6c0.6-0.5,1.2-0.2,3.3,1.9c2.6,2.5,5.4,3.9,7.3,3.9c1.5,0,1.2-1.1-0.9-3c-5.4-4.7-6.7-14.2-2.2-16.2
	c2.9-1.3,3.7-0.6,7.9,6.7c4,6.9,3.6,9.8-2.2,15.3c-3.6,3.4-8.6,6.3-13.8,8c-3.3,1.1-5,1.3-10.8,1.5c-4.8,0.1-6.8,0.4-6.7,0.8
	c0.3,1.1,3.3,2.5,6.4,3.1c1.7,0.3,3.6,0.7,4.3,0.8c1.5,0.3,1.4,2.1-0.2,3.7c-2.1,1.9-4.8,2.8-9.6,3.1c-5.3,0.3-9.8-0.6-14.6-3
	c-3.1-1.6-6.9-4.9-6.9-5.9c0-0.2,1.3,0.1,3,0.8c3.2,1.2,6.9,1.6,10.2,1c2.5-0.5,1.9-1.1-2.7-2.3c-6.5-1.7-10.4-5.5-13.4-13.1
	c-2.1-5.1-3-10.8-3-18.7c0-10.9,1.6-18.6,5.5-26.3c2.3-4.6,6.6-9.4,9.2-10.2c2.4-0.8,4.3,0.1,5.1,2.6c0.8,2.4,0.3,3.9-2.5,8.1
	c-2.6,3.9-3.6,6.4-4.4,11.2c-0.7,4.6-2,7.2-4,8.2c-2,1-1.9,1.7,0.4,1.7c1.2,0,2.6-0.5,4.1-1.4c1.2-0.8,2.6-1.4,3.1-1.4
	c1.2,0,1.5-0.8,0.8-1.9c-1.3-2,1.4-9.4,5-13.8c1-1.3,2.3-3.1,2.7-4.2c1.1-2.5,1-6.5-0.2-9.5l-1-2.5l1.9-1.7c2.3-2,6.8-4.3,8.4-4.3
	C-341.8,6.1-340.6,6.7-339.7,7.3z M-333.9,44.8l2.4,2.7l-0.8,2.2c-0.5,1.3-0.8,3.2-0.8,4.3c0,2.3-0.6,2.9-1.8,2
	c-1.4-1.1-2.6-4.4-2.9-8.4C-338.5,41.2-337.6,40.7-333.9,44.8z"/>
<path d="M-391.5,105.9c-4.3,1.2-8,3.9-10,7.5c-2.6,4.7-1.8,8,3.2,13.4c4.2,4.5,4.7,5.8,3.8,10.6c-2.2,11.9-2.5,15.8-1.5,21.6
	c0.5,2.9,3,9.3,3.9,10.3c0.2,0.2-0.5,2.1-1.5,4.1c-1.7,3.2-1.9,4.1-1.9,6.9c0,9.6,7.8,19.2,18.5,22.8c4.9,1.6,10.5,1.8,14.4,0.4
	c3.7-1.3,7.6-4.9,9-8.1c0.9-2.1,1.4-2.6,2.8-3.1c2.3-0.7,7.5-3.6,10.4-5.8c7.9-6,14.7-9.7,23.4-12.7c11-3.8,17.3-6.9,21.1-10.5
	c2.5-2.3,3.6-4.1,3.9-6.7c0.1-1.1,0.9-3.2,1.7-4.7c3.9-7.3,2.4-13.3-4.1-17.4c-1.7-1-3.2-1.9-3.3-1.9c-0.2,0-0.7-1.1-1.2-2.5
	c-2.5-6.9-10.5-10.5-22.6-10.5c-7,0-13.3,0.9-27.1,3.7c-8.1,1.6-12.5,2.3-15.7,2.3l-4.5,0l-0.2-5.5c-0.3-6.2-0.9-7.7-4.3-10.6
	C-377.9,105.7-385.4,104.2-391.5,105.9z M-380.4,113.5c3.5,1.7,4,2.9,4,9.1c0,6,0.4,6.9,3.4,9.1c1.2,0.9,2,1,7.4,1
	c5.2,0,7.8-0.3,17.3-2.2c17.8-3.5,20.6-3.9,28.1-3.7c4.8,0.2,7.1,0.5,8.6,1.1c2.7,1.2,4.8,2.6,4.5,3.2c-0.2,0.2-1.7,0.4-3.4,0.4
	c-7.2,0-18.1,2.6-24.4,5.9l-2.9,1.5l-2.4-2.3c-3-2.9-3.8-2.5-2.4,1.2c3.3,8.6,6,16.8,7.1,22.1c0.7,3.3,1.5,6.2,1.7,6.4
	c0.6,0.6,1.5-1.4,2-4.6c0.5-3.3,0.6-3.4,6-6c6.7-3.2,13.6-5,18.7-5c4.9,0,8.3,1.8,8.3,4.5c0,3.1-5.3,6.3-18.2,10.9
	c-13.2,4.7-17.1,6.7-26.4,13.5c-7.4,5.4-12,7.3-17.8,7.3c-11.6,0-18.9-5.7-18.9-14.7c0-5.9,2.6-11.3,8.1-16.9
	c1.4-1.4,2.3-2.7,2.2-2.8c-0.2-0.2-1.5,0.2-3,1c-3.1,1.5-7.6,5.9-9.9,9.7c-0.8,1.4-1.8,2.6-2.1,2.6c-1.1,0-3.2-4.4-3.8-7.9
	c-0.7-4-0.3-10.3,1-16.6c2-9.2,1.1-12.6-4.6-18.7c-1.8-1.9-3.3-3.8-3.3-4.1c0-1.3,2.3-3.8,4.5-5c1.8-0.9,2.8-1.1,5.5-1
	C-383.7,112.5-381.5,113-380.4,113.5z M-304,138.4c3.5,0.6,6.4,1.9,7.4,3.4c0.9,1.2,1,3.4,0.3,4.7c-0.4,0.8-0.6,0.8-1.8,0.2
	c-0.7-0.4-2.8-0.9-4.7-1.2c-6.4-1.1-14.4,0.7-23.9,5.3c-3.3,1.6-4.9,2.2-5.2,1.8c-0.7-1.2-3.1-8.8-2.8-9.3
	c0.4-1.2,10.4-4.3,16.1-5.1C-315.9,137.7-306.7,137.9-304,138.4z M-384.3,179.4c2.9,7.6,9.8,12.7,18.8,13.6c1.5,0.1,3.1,0.4,3.4,0.7
	c1.1,0.7-0.9,2.3-3.9,3.1c-2.3,0.7-3.2,0.7-5.8,0.2c-8.6-1.6-16.3-9.4-16.3-16.4c0-1.9,1.1-4.8,1.9-4.8
	C-385.9,175.8-385.1,177.4-384.3,179.4z"/>
<path d="M-238.1,0.3c-7,1.1-13.7,5.9-17.1,12.3c-1.3,2.6-2.3,3.7-3.6,4.4c-2.4,1.3-6.6,5.3-8.2,8c-2,3.4-2.9,7.2-2.8,12.5
	c0.1,8.5,2.2,16.7,5.6,22.7c2.1,3.5,8,9.2,13.4,12.6l3.7,2.5l0,3c-0.1,5.9,3.3,11.2,9.8,15.2c13,8.2,32,7.6,41.2-1.1
	c3.2-3.1,4.4-6.4,4-11.3l-0.2-3.2l3.6-3.7c4.4-4.5,8-11.2,10-18.5c1-4,1.3-5.9,1.3-11.3c0-5.8-0.1-6.9-1.2-10.2
	c-1.7-4.8-4.4-8.3-8.6-11c-2.5-1.6-3.7-2.7-4.9-4.7c-1.9-3.3-5.3-6.5-8.6-8.3c-1.3-0.7-4.9-2-7.9-2.8c-3.6-1-6.4-2.1-8.1-3.2
	C-221.9,1-231-0.7-238.1,0.3z M-228.3,8.2c0.7,0.2,0.2,0.8-2.2,2.3c-1.9,1.2-3.8,3-5.2,4.9c-1.2,1.6-2.4,3.3-2.8,3.8
	c-0.6,0.8-0.9,0.7-4.9-1.1c-2.3-1.1-4.3-2.1-4.4-2.2c-0.4-0.3,2.6-4.1,4.3-5.3c2.7-2,6.9-3.1,10.9-2.8
	C-230.7,7.8-228.8,8.1-228.3,8.2z M-209.7,15.1c3.2,1,7.1,2.9,7.4,3.8c0.1,0.4,0.1,0.7-0.1,0.7c-7.5,0.4-14.8,2.5-18,5.1
	c-1.1,0.9-2.7,2.7-3.4,3.8c-0.7,1.2-1.5,2.1-1.7,2.1c-0.8,0-6.5-6-6.5-6.9c0-2.4,3.9-7,6.9-8.1C-220.1,13.8-214.6,13.6-209.7,15.1z
	 M-245,25.1c5.4,2.7,10.6,6.4,11.8,8.3c1.2,2.1,1.1,4.6-0.4,6.3c-1.6,1.9-5.7,3.1-8.9,2.7c-2.3-0.4-7-2.8-9.3-4.9
	c-0.7-0.7-1.4-1.1-1.6-0.8c-0.5,0.9,1.3,4.9,3.4,7.2c2.3,2.6,2.3,3-0.1,3.8c-1.5,0.5-1.4,1.6,0.2,2.3c1.6,0.6,5.1,0.2,7.2-0.9
	c1.8-0.9,5.7-1,7.4-0.1c4.2,2.2,9.1,8.1,11.1,13.5c0.6,1.7,1.4,3.1,1.7,3.2c0.7,0.2,1.2-1.9,1-4.5l-0.2-2.2h1.7
	c4.7,0,10.1-2.6,12.5-6c0.7-1,1.4-1.7,1.6-1.7c0.2,0,1.3,0.6,2.4,1.4c2.4,1.7,4.9,2.3,6.4,1.4c1-0.5,1-0.6-1.2-2.9
	c-1.2-1.3-2.3-2.6-2.3-2.8c0-0.3,1-1.2,2.2-2c2.7-1.8,3.7-3.2,3.7-4.9c0-1.6-0.8-1.7-3.4-0.4c-1,0.5-2.7,1-3.7,1.1
	c-1.8,0.1-1.8,0.1-2.9-2.5c-1.5-3.6-2.5-3.5-2.9,0.2c-0.8,8.4-7.8,14.4-13.4,11.5c-3-1.5-3.1-2.8-0.7-9.8c3.9-11.6,7-14.2,17.5-14.9
	c8.6-0.6,15.4,2.8,17.7,8.8c0.3,0.8,0.8,3.2,1,5.4c1.5,13.3-5.2,28.6-15.6,35.1c-1.9,1.2-4.9,2.7-6.7,3.4c-1.8,0.7-3.3,1.5-3.3,1.8
	c0,1.1,2.7,1.4,6.7,0.8c2.6-0.3,4.3-0.4,4.6-0.1c0.7,0.7-1.1,4.7-2.9,6c-0.9,0.7-3.3,1.7-5.3,2.4c-8.7,2.8-20.5,0.7-27-5
	c-2.7-2.4-3.9-4.2-3.9-6.2c0-1.2,0.1-1.3,1.6-1c4.6,0.8,7.5,0.9,9.8,0.3c1.4-0.3,2.4-0.8,2.3-1.2c-0.1-0.3-1.7-1-3.6-1.6
	c-5.5-1.7-9.1-3.4-14.3-6.7c-9.2-5.9-14.3-11.4-16.5-18.1c-1.6-4.8-2.9-13.3-2.5-16.4c0.4-3.3,2.9-8,5-9.6
	C-253.2,22.2-250.8,22.2-245,25.1z"/>
<path d="M-242.2,106.1c-8,2-16.2,7.8-19.3,13.7c-3.9,7.5-3.5,16,1.1,22.1c1.1,1.4,1.4,2.5,1.4,4.1c0.1,2.9,0.7,6,2.1,8.8
	c0.6,1.3,1,2.4,0.8,2.5c-0.1,0.1-1.5,1-3,2c-7.2,4.5-10.3,13.7-7.4,21.9c2.1,6,8.7,12.9,15.6,16.3c2.4,1.2,4.3,1.6,7.8,2.1
	c3.7,0.4,5.6,0.9,8.7,2.3c7,3.2,11.1,3.6,16.9,1.4c1.8-0.7,3.7-1,7-0.9c5.4,0,6.5-0.2,10.9-2.3c4.5-2.2,10.9-8.2,13.5-12.8
	c4.8-8.3,6.3-19,3.8-26.7c-3.4-10.4-12.3-21.8-22.4-28.9c-3.7-2.6-4.1-3.1-4.1-4.4c0-2.4-1.4-6.9-2.9-9.6c-1.8-3.3-6.4-7.5-10.2-9.4
	C-227.5,105.2-235.5,104.4-242.2,106.1z M-225.2,114.9c2.7,1.3,4.2,2.4,5.5,4c1.7,2.2,3.2,5.7,2.6,6.3c-0.2,0.1-1.9,0-3.8-0.3
	c-3.4-0.5-6-0.3-6,0.4c0,0.2,1.8,1.3,4.1,2.4c10.4,5.2,18.6,12.1,26,21.8c6.3,8.2,7.9,12.3,7.8,19.8c0,2.4-0.3,5.6-0.8,7.2
	c-1.9,6.7-7.9,14.4-13.3,16.8c-4.4,2-4.8,1.6-2.5-2.4c2.5-4.3,5.9-16.2,4.7-16.2c-0.8,0-1.8,1.4-5.1,7c-3.9,6.6-5.8,9.2-9,12
	c-4.1,3.6-7.8,4.2-13.1,2.2l-1.3-0.5l2.2-2.6c1.2-1.4,2.8-3.7,3.6-5c1.8-2.9,4.3-9.7,3.7-10c-0.5-0.3-2.6,1.6-8.1,7.6
	c-2.1,2.3-4.9,4.8-6.2,5.5c-4.6,2.6-11.1,1.3-17.5-3.3c-2.5-1.8-5.8-5.9-6.9-8.5c-1-2.3-0.9-6.6,0.1-9.1c1.6-3.9,6.6-6.7,9.3-5.3
	c1.7,0.9,4.9,3.4,4.9,3.9c0,1.1-2.7,3.8-3.7,3.8c-2.3,0-4.2,0.6-5.5,1.7c-1.5,1.3-1.2,2.1,0.7,2.1c0.8,0,2,0.2,2.7,0.5
	c1.1,0.4,1.3,0.7,1.3,2.8c0,2.5,0.8,4.9,1.6,4.9c0.2,0,1.1-1.4,2-3.2c1.8-3.9,4-7.1,5.1-7.5c0.5-0.2,1.3,0.3,2.4,1.4
	c1.2,1.3,1.6,1.5,2.2,1.1c1.9-1.5-1-7.8-6.5-13.9c-10.8-12.2-11.8-19-4.6-29.8c1.2-1.8,2.2-3.4,2.2-3.5c0-0.4-2.3-0.2-3.6,0.2
	c-0.6,0.2-2.4,1.6-4,3c-3.5,3.1-4,2.8-4-1.9c0.1-7.2,5.2-13.2,14.3-16.4c2.1-0.8,3.6-0.9,7.7-0.8
	C-229.4,113.1-228.7,113.3-225.2,114.9z"/>
<path d="M-341.5,210.5c-5,1.8-6.4,4.1-8.8,13.9c-1.8,7.2-2.1,8.1-2.6,5.4c-1.4-9.1-2.1-11-4.9-13.9c-6.5-6.7-17-5.7-20.9,1.9
	c-1.3,2.5-1.6,7-0.9,13.8c0.3,2.4,0.7,13.6,1,24.8c0.8,28.8,1,31.7,2.9,35.5c1.4,2.7,1.5,3.5,1.4,7.1c-0.2,3.5,0,4.3,1.2,6.8
	c3.2,6.5,12.5,11.2,22.1,11.2c9.2-0.1,16.7-3.7,20.5-10c1-1.6,2.1-2.6,3.8-3.4c3.1-1.4,6.4-4.8,8.1-8.3c1.1-2.3,1.4-3.8,1.5-7.8
	l0.2-4.9l2.8-2.7c9.9-9.7,7.2-28.5-5-34.6c-1.1-0.5-3.5-1-5.7-1.2c-2.6-0.2-3.9-0.5-3.9-0.9c0-0.3,0.5-2,1.1-3.6
	c2.5-7.2,3.3-15.6,1.9-20.3C-327.8,212.8-335.5,208.4-341.5,210.5z M-334.7,217.1c2,1.1,3.9,5,3.9,7.6c0,2.6-1.2,7.9-4.3,18.9
	c-2.7,9.6-3.2,13.5-2,13.5c0.3,0,1.2-0.8,1.9-1.9c2.9-4.1,8.7-5.6,13.2-3.4c4.9,2.5,7.6,9.3,6.5,16.2c-1.3,7.6-5.8,11.2-10.6,8.4
	c-1.3-0.7-1.5-1.2-1.5-3c-0.1-2.4-1.1-5.6-2.3-6.9c-1-1.1-1.1-4.3-0.3-7.6c1.1-4.1-0.7-3.5-2.8,0.9c-0.7,1.4-1.4,2.5-1.7,2.5
	c-0.2,0-3.2-1.3-6.6-3c-6.1-2.9-6.2-3-10.7-3c-3.7,0.1-5,0.3-6.9,1.2c-2.8,1.4-7.4,5.5-10,9c-1,1.4-2,2.4-2.2,2.2
	c-0.3-0.1-0.6-8.8-0.8-19.3c-0.2-10.5-0.5-20.6-0.7-22.5c-0.5-4.2,0-6.2,1.8-7.6c1.8-1.4,3.7-1.3,6.3,0.1c3,1.7,4.1,5.2,5.7,18.8
	c1.3,11,2,13.6,4,14.6c1.2,0.7,1.7,0.2,1.3-1.2c-0.2-0.7,0.7-3.2,2.4-6.7c2.9-6,6.4-16.4,7.5-22.4
	C-342.4,216.6-339,214.5-334.7,217.1z M-348.4,263.1c3.9,1.1,9.2,4,12,6.4c2.3,2,2.8,4.1,1.2,6.4c-1.8,2.6-3.9,3.4-8.3,3.3
	c-3.6-0.2-4.6-0.4-8.5-2.3c-2.4-1.2-4.6-2.1-4.9-1.9c-0.5,0.3,0.3,1.9,2.3,4.5c1.9,2.2,1.6,2.8-1.7,4.2c-2.4,1.1-2.6,1.4-1,2.5
	c1.7,1.2,4.1,1,7-0.5c1.4-0.7,3-1.3,3.5-1.3c0.6,0,2.2,1.2,3.6,2.6c1.5,1.5,2.9,2.5,3.2,2.3c0.3-0.2,0.7-1.2,0.9-2.3
	c0.3-1.7,0.6-2.1,2.3-2.6c1.1-0.4,3-1.3,4.3-2.2l2.3-1.6l3,1.3l3,1.3l0.2,3.1c0.2,4.1-1.3,7.7-4.5,10.4c-2.4,2.1-5.6,3.5-11.4,5
	c-1.7,0.5-3.1,1-3.1,1.3s1,0.9,2.1,1.3c1.2,0.5,2.1,1.1,2.1,1.4c0,0.3-1.3,1.2-2.8,2c-2.4,1.3-3.5,1.5-8.4,1.7
	c-6.3,0.3-9.6-0.6-13.8-3.6c-1.9-1.3-4.2-4.8-3.6-5.4c0.1-0.1,1.5,0.4,3.1,1c4,1.7,8.2,2.5,10.9,2.1c2.9-0.4,3-1.1,0.4-2.1
	c-6-2.4-9.1-4.3-12.4-7.5c-2.9-2.7-3.7-3.9-4.4-6.2c-1.4-4.8-1-6.7,2.9-13c4.6-7.3,8-10.7,12.1-12.2
	C-352.3,262-352.2,262-348.4,263.1z"/>
<path d="M-105.9,210.2c-3.1,0.9-7.4,5-8.3,7.7c-1.2,3.9-1.1,7.8,0.2,13.9c0.7,3.2,1.3,6.3,1.3,7c0,1.4-0.9,3.1-4.6,8.4
	c-2.4,3.5-3,4.1-4.2,4.1c-2.4,0-5.9,1.2-8.1,2.9c-3.5,2.7-5.8,7.5-6.9,15c-1.8,11.4,5.1,26.3,14.2,30.3c2,0.9,3.4,1.1,7,1.2
	c3.9,0,4.9,0.2,7.5,1.4c2.6,1.2,3.5,1.4,7.6,1.4c3.9,0,4.8,0.2,6,1.1c4.5,3.2,10,4.7,15.6,4.3c7.2-0.5,12-3.2,14.6-8.3
	c1.4-2.8,1.7-3.8,1.7-7.1c0.1-3.3,0.2-4.2,1.3-6.1c0.7-1.2,1.6-2.8,1.8-3.5c0.8-2.1,0.6-7.7-0.2-10c-0.8-1.9-0.7-2.1,0.1-4
	c1.4-3,1.3-10.8-0.2-13.9c-3.5-7.3-11.7-11.9-21.8-12.1c-2.4,0-4.5-0.2-4.6-0.3c-0.1-0.1,0.3-1.8,1-3.8c1.6-4.3,2.1-11.1,1.2-14.9
	c-1.8-7.5-6.3-12.4-13.1-14.5C-100.3,209.3-102.6,209.3-105.9,210.2z M-96.1,217.9c2.5,1.7,4.5,4.5,5.4,7.4
	c0.8,2.8,0.7,9.8-0.3,14.7c-1,4.9-1,8.4,0,10.8c0.9,2.2,1.2,2.3,2.4,1c1.2-1.3,6.4-1.8,10.4-1c8.4,1.5,12.8,5.7,12.8,12.2
	c0,4.9-1.9,7.5-7.2,9.7c-7.1,3-17.6,1.3-20.1-3.3c-1.1-2.1-1-5,0.2-6.5c2.6-3.5,10-4.8,14.9-2.5c2.8,1.3,3.8,0.8,2.2-1.1
	c-1.3-1.5-0.9-2.3,1-2.3c1.7,0,1.8-0.6,0.4-1.6c-0.8-0.5-2.4-0.6-7.8-0.5c-3.8,0.1-7.8,0.5-9,0.8c-3.1,0.8-5.9,2.9-7.3,5.6
	c-1.6,3.2-1.9,5.5-1,8.7c0.8,2.9,0.6,3.4-2,6.4c-0.9,1.1-1.6,2.1-1.6,2.3c0,0.2,0.7,0.5,1.5,0.7c1.7,0.3,2.2,1,2.7,3.8
	c0.1,1,0.6,2.5,1.1,3.3c0.6,1.3,0.6,1.6-0.1,3.7c-0.5,1.2-1,3.2-1.2,4.4c-0.2,2-0.4,2.2-2.1,2.6c-1.4,0.3-2.4,0.2-4.1-0.4
	c-3.4-1.2-5.4-3.2-7-6.7c-0.8-1.7-1.6-3.1-1.8-3.1c-0.6,0-1.5,3.8-1.2,4.9c0.4,1.3-0.5,2.4-2.2,2.4c-3.8,0-8.9-5.8-11.3-12.7
	c-2.2-6.8-1.6-15.5,1.5-20c1.1-1.7,4.5-3.8,5.1-3.2c0.1,0.2,0.4,1.5,0.5,2.9c0.3,4.2,1.1,7.2,2.7,9.9c2.5,4.2,2.9,3.6,2.8-4.8
	c0-8.8,0.5-10.6,5.5-17c3.3-4.3,4.7-7.5,4.7-10.9c0-1-0.6-4.3-1.3-7.2c-1.5-6.3-1.4-10.2,0.1-11.9
	C-103.9,215.8-99.8,215.4-96.1,217.9z M-66,280.1c0,2.9-0.7,4.2-3.6,6.4c-2.5,1.8-5.1,2.4-10.6,2.2c-5.2-0.2-7.6-1.1-10.4-3.8
	c-1.7-1.6-2.1-3.9-0.9-5.4c0.5-0.7,0.8-0.7,3.2-0.1c6.4,1.6,12.6,1.3,18.1-0.9C-66.4,276.9-66,277-66,280.1z M-87.2,293.9
	c4.5,1.3,9.5,1.5,14.7,0.7c1.6-0.2,3.1-0.3,3.2-0.2c0.1,0.1-0.2,1.2-0.7,2.5c-0.6,1.5-1.6,2.7-3.1,3.8c-2,1.3-2.4,1.4-6.9,1.4
	c-4.2,0-5.2-0.1-7.3-1.2c-3.9-2-5.6-4.6-4.5-7.4C-91.6,292.5-92.2,292.4-87.2,293.9z"/>
<path d="M-52.9,105.6c-2.2,0.6-4.3,2.4-6.7,5.5c-3.5,4.6-10.3,12.5-11.6,13.5c-1.1,0.8-1.3,0.8-4.2-0.5c-2.5-1.1-3.8-1.3-7.6-1.4
	c-4.3,0-4.6-0.1-6.5-1.6c-6.2-4.8-16.7-5-23.5-0.6c-2.5,1.7-3.9,3.3-6.1,7l-1.6,2.8l-3.2-3c-5.6-5.2-12.1-7.5-18.6-6.4
	c-5,0.8-9.2,2.8-12.5,6.2c-3.6,3.5-5.3,8-4.9,12.5c0.6,6.4,4,9.5,14.1,12.7c2.2,0.7,4.9,1.9,5.9,2.7c1.9,1.5,4.1,5.2,5.3,8.8
	c1.4,4.5,5.5,11.7,8.4,15c2.9,3.3,2.9,3.5,3.2,6.8c0.5,6.3,3.8,10.8,10.9,14.5c10.6,5.4,22.5,5.5,33.7,0.2
	c6.6-3.2,10.9-8.6,11.5-14.9c0.3-2.5,0.5-2.9,2.6-4.8c2.9-2.5,4.9-6.2,7-12.6c0.9-2.8,2-6.4,2.6-8.2c1.3-4.3,4.4-10.4,6.4-13
	c4.4-5.5,9.2-12.6,10.7-15.5c3.1-6.3,3.5-14,0.8-19C-39.6,106.9-46.8,103.8-52.9,105.6z M-46.6,113c4.2,1.7,5.3,7.6,2.4,14.1
	c-1.7,3.8-4.3,7.9-9.1,13.8c-3.3,4.2-6.9,10.8-8.5,15.6c-0.5,1.7-1.9,6-3,9.5c-3.4,10.6-5.7,12.8-14.4,13.6
	c-2.5,0.2-4.7,0.5-4.9,0.7c-0.6,0.6,2,2.1,5.3,3.1l3.5,1.1v1.9c0,3.5-5.2,7.6-11.8,9.3c-3.9,1-12.5,1-16.4,0
	c-5.1-1.3-11.1-5.4-11.3-7.7c0-0.4-0.1-1-0.1-1.3c-0.1-0.4,1.4-0.6,4.9-0.6c6,0,8.2-0.6,12.3-3.3c3.2-2.1,4.4-3.4,3.8-4
	c-0.2-0.2-2.4,0.1-5,0.7c-8.7,1.9-14.3,1.1-18.9-2.8c-3.3-2.8-5.8-6.7-8.8-13.7c-3.4-8.2-4.2-9.5-6.6-12c-2.5-2.6-5.2-4.1-9.6-5.4
	c-7.9-2.4-10.6-5-9.3-9.2c0.8-2.5,3.5-5.4,6.4-6.8c1.8-0.9,3.2-1.1,6.3-1.1c5.6,0,8.7,1.5,13.7,6.6c8.4,8.6,9.4,9.6,10,9.4
	c0.4-0.1,0.6-1.4,0.7-3.8c0.2-6.6,3.3-12.4,7.8-14.6c6-2.9,13.4-0.6,16.4,5c3.1,5.8,2.2,15-2,21c-2.8,3.8-6.3,5-10.1,3.3
	c-2.7-1.2-4-3.7-4.3-7.8c-0.2-4.3,0.4-6.4,2.7-9.8c1.9-2.7,1.7-3.8-0.5-2.8c-1.5,0.7-2.3,0.1-2.3-1.9c0-1.2-0.6-1.3-1.5-0.3
	c-1.1,1.3-4.1,13.2-4.1,16.6c-0.1,9.3,9.1,15.7,18.3,12.7c2.2-0.7,2.2-0.7,4.6,0.7c1.2,0.8,3.5,1.7,4.9,2c8,1.7,16.6-5.2,19.5-15.7
	c1.2-4.4,1.1-10.9-0.2-14.6l-1.1-3.1l1.7-1.7c1.5-1.5,5.5-6.3,11.5-13.9c1.4-1.8,3.8-3.5,5-3.5C-48.5,112.3-47.5,112.6-46.6,113z
	 M-78.2,131.4c4.1,1.6,6.5,5.3,6.5,10.2c0,8.5-5.1,16.3-10.7,16.3c-1.4,0-4.4-1.3-4.1-1.8c0.1-0.2,0.7-1.4,1.5-2.7
	c2.1-4,3-7.7,3.1-13c0.1-2.6-0.1-6.1-0.3-7.6l-0.4-2.8l1.4,0.3C-80.6,130.6-79.2,131-78.2,131.4z"/>
<path d="M-251.5,218.6c-2.1,1.1-3.3,2.6-5.1,6.4l-1.2,2.7l-2.2-1.5c-4.4-3-10.4-2.2-13.5,1.7c-2.2,2.7-2.8,5.6-3,13.3l-0.1,7
	l-2.6,6.7c-2.6,6.8-4,11.7-4,14.8c0,1.2-0.3,2.1-1.2,2.8c-2.1,2-3.4,5.6-3.2,9.1c0.5,8,7.3,15.5,16.5,17.8
	c6.7,1.7,10.9,0.8,15.7-3.5c2.6-2.4,2.8-2.5,6.1-2.6c4.2-0.2,6.3,0.4,9.6,3c5.3,4.2,9.2,5.1,13.9,3.5c2.2-0.8,2.4-0.8,4.7,0
	c4.8,1.8,8.5,0.9,13.7-3.4c3.3-2.7,5.1-3.3,9.8-3.1c3.6,0.1,3.7,0.2,5.6,2.1c2.4,2.5,4,3.5,7.2,4.3c3.4,0.9,5,0.9,8.6,0
	c6.7-1.7,12.1-5.8,15.1-11.4c3-5.9,2.8-10.1-0.7-15c-1.1-1.5-1.8-3.1-1.9-4.3c-0.3-3.6-1.2-7.2-3-11.8c-3.2-8.3-3.2-8.6-3.6-16.6
	c-0.3-7.2-0.4-8-1.7-10.5c-3-5.9-9.5-7.3-15.2-3.2c-1.4,1-1.8,1.1-2,0.5c-0.1-0.4-1-2.2-2-4c-1.4-2.7-2.2-3.6-4-4.5
	c-2.8-1.4-7-1.5-9.5-0.2c-4,2-6.2,7.6-5.7,14.2l0.3,3.8l-2.9,1.2c-1.6,0.7-4.6,2.3-6.6,3.6l-3.7,2.5l-2.5-1.8
	c-1.3-1-4.2-2.7-6.4-3.7l-3.9-1.8l-0.1-5.5c-0.1-5.1-0.1-5.7-1.5-8.4c-1.9-3.7-4.1-5-8.5-5C-248.6,217.7-250.2,218-251.5,218.6z
	 M-244.5,224c2,2.1,2.7,7.4,1.4,10.8c-0.5,1.3-1.2,1.8-4.4,3.2c-6.3,2.6-11.1,7-12.5,11.4c-0.5,1.4-0.7,2.6-0.6,2.7
	c0.1,0.1,1.8-1.4,3.8-3.4c5-4.9,9.1-6.9,14.4-6.9c3.2,0,4.2,0.2,7.1,1.6c4.3,2.1,8.1,5.3,8.6,7.3c0.4,1.9-0.8,3.8-2.4,3.8
	c-0.6,0-2.6-0.6-4.3-1.4c-1.7-0.8-3.6-1.5-4-1.7c-0.5-0.1-0.9-0.7-0.9-1.3c0-1.2-0.4-1.1-4.8,1.3c-7.9,4.2-10.9,11.8-7.4,18.8
	c1.7,3.5,4.6,5.6,12.4,9.3c3.4,1.6,7,3.7,8,4.5c2,1.6,3.7,4.6,3.7,6.6c0,1.9-1.8,3.8-3.5,3.8c-1.8,0-2.9-0.5-6.4-3.2
	c-5.1-3.8-6.6-4.1-17-2.7c-5.1,0.6-6.8,0.7-9.5,0.2c-1.8-0.3-3.9-0.7-4.7-0.8l-1.5-0.2l1.8,1.6c1,0.9,3,2,4.4,2.5
	c2.9,1,2.8,1.7-0.3,2.7c-5.7,1.8-14.3-2.5-17.8-8.8c-1.7-3.1-2-5.1-1.2-7.1l0.7-1.6l1.6,2.3c1.7,2.4,2.9,2.7,2.6,0.8
	c-0.1-0.6-0.2-3.8-0.2-6.9c-0.1-6.3-0.4-5,4.9-18.8c1.8-4.6,1.9-5.2,2.2-12.5c0.4-8.3,0.7-9.9,2.7-11.1c1.1-0.7,1.5-0.7,2.8-0.1
	c3.3,1.3,3.8,5.8,1.2,11.3c-2,4.2-3.3,8.3-2.8,8.6c0.7,0.5,10.7-14.8,13.1-20.1c1.3-2.9,3-5.8,3.7-6.4
	C-247.9,222.6-245.8,222.6-244.5,224z M-197.8,223.7c0.6,0.4,1.9,2.5,3,4.7c2.8,6.1,3.8,7.8,8.7,15c4.4,6.5,5.5,7.8,5.5,6.3
	c0-0.9-2-6-3.7-9.5c-1.5-3.2-1.6-4.4-0.3-7.1c1.1-2.5,2.7-3.3,4.6-2.6c2.4,0.9,3,2.9,3.4,11.6l0.3,7.9l2.6,6.7
	c1.4,3.7,2.9,7.6,3.3,8.7c0.8,2.2,1.1,9.6,0.5,13.6c-0.5,3.3,0.4,3.4,2.5,0.3c1.4-2,1.5-2.1,2-1.2c1.6,2.8-0.7,9-4.5,12.3
	c-4.2,3.7-10.5,5.4-14.6,3.9c-1.2-0.5-2.2-1-2.2-1.2c0-0.1,1.4-0.9,3.2-1.6c3.1-1.3,5.2-2.9,4.6-3.5c-0.1-0.1-1.7,0-3.4,0.5
	c-3.9,1-6.4,1-12.1,0c-5.4-0.9-9-0.9-11.3-0.2c-0.9,0.3-3.5,1.8-5.6,3.4c-4.2,3-6.1,3.5-8.2,2.1c-0.8-0.6-1.1-1.2-1.1-2.9
	c0-1.2,0.3-2.7,0.7-3.5c1.2-2.3,4.8-4.9,9.7-7.2c8.8-4,11.8-6.3,13.8-10.4c2.2-4.6,1.3-10.4-2.3-14.4c-1.6-1.7-8.4-6.1-9.6-6.1
	c-0.1,0-0.4,0.5-0.5,1.2c-0.2,0.7-0.6,1.2-1,1.2c-0.4,0-2.1,0.6-3.7,1.4c-4.7,2.3-7.2,1.8-7.1-1.6c0-1.2,0.6-2,2.7-4
	c9.6-8.6,19.5-7.7,29,2.6c2.9,3.3,3.6,2.3,1.3-2c-2.3-4.5-6.8-8.4-11.9-10.3c-3.1-1.2-4-1.7-4.5-2.8c-0.7-1.7-0.8-6.5-0.1-8.9
	C-203.1,223.2-200.3,222.1-197.8,223.7z M-234.2,259.5c3.5,1.6,5.4,1.8,8.3,0.7c1.9-0.7,2.2-0.7,4.8,0c3.3,1,4.9,0.8,9.7-1.2
	c3.2-1.4,3.8-1.5,5.5-1c3.9,1.1,5.8,5.5,4,9.3c-1.1,2.6-2.1,3.2-10,7.1c-3.3,1.7-7.3,3.8-8.7,4.9c-1.4,1-2.8,1.9-3,1.9
	c-0.2,0-1.4-0.8-2.7-1.7c-1.3-1-5-3-8.3-4.6c-6.7-3.2-9.4-5.1-10.5-7.2c-2.4-4.4,1.4-10.6,6.1-9.8
	C-238.1,257.9-236,258.7-234.2,259.5z"/>
<path d="M-221.7,146.8c1.7,3.4,3.7,7.4,4.3,8.8c1.9,4.5,3.4,5.4,4.4,3c0.5-1.1,0.4-1.7-0.5-3.7c-1.8-3.9-4.8-8.5-7.5-11.4
	C-225.1,139-225.3,139.9-221.7,146.8z"/>
<path d="M-213.9,141.8c0,0.9,7.5,14.9,8.6,16.1c1.2,1.3,2.1,1.4,2.8,0.1c0.6-1.1-0.5-3.5-3.8-8.6
	C-209.7,144.4-213.9,140.1-213.9,141.8z"/>
<path d="M-232.6,144.6c0.2,0.6,0.7,2.5,1.3,4.2c1.6,5.7,3.6,10.1,4.6,10.4c1,0.3,2.3-0.6,2.3-1.6c0-1.3-3.6-8.5-5.6-11.3
	C-232.1,143.5-233.2,142.8-232.6,144.6z"/>
<path d="M-31.6,153c-1.9,0.9-3.2,3-3.2,5.2c0,1.3,0.4,2.2,1.7,3.6c1.5,1.6,1.9,1.8,4.3,1.8s2.7-0.1,4.3-1.8c1.9-2.1,2.2-3.8,0.9-6.4
	c-0.8-1.7-3.2-3.1-5.3-3.1C-29.6,152.3-30.8,152.6-31.6,153z M-25.4,154.9c2.7,2.6,0.9,7.1-3.1,7.7c-1.4,0.2-2,0-3.3-1.1
	c-2.1-1.9-2.5-4.3-1-6.1C-30.7,152.9-27.7,152.7-25.4,154.9z"/>
<path d="M-29.4,155.9c0,1.6-0.1,1.7-1.7,1.7c-0.9,0-1.7,0.2-1.7,0.5c0,0.2,0.8,0.5,1.7,0.5c1.6,0,1.7,0.1,1.7,1.7
	c0,0.9,0.2,1.7,0.5,1.7c0.3,0,0.5-0.8,0.5-1.7c0-1.6,0.1-1.7,1.7-1.7c0.9,0,1.7-0.2,1.7-0.5c0-0.3-0.8-0.5-1.7-0.5
	c-1.6,0-1.7-0.1-1.7-1.7c0-0.9-0.2-1.7-0.5-1.7C-29.1,154.2-29.4,154.9-29.4,155.9z"/>
<path d="M-23.9,163.2c0,0.7,3.4,3.7,3.8,3.3c0.2-0.2-0.4-1.1-1.3-2C-23,162.9-23.9,162.4-23.9,163.2z"/>
<path d="M-272.2,260.5c-0.8,1-2.5,6.6-2.9,9.4c-0.2,2-0.2,2.5,0.3,2.5c0.7,0,4.9-9.7,4.9-11.4C-269.8,259.8-271.3,259.5-272.2,260.5
	z"/>
<path d="M-266.2,262.9c-1.3,1.4-2.3,3.3-3.3,6.4c-1.9,6-1.4,6.6,1.5,2c3.4-5.3,4.7-8,4-8.8C-264.7,261.6-265,261.7-266.2,262.9z"/>
<path d="M-262.3,269.3c-1.8,2.6-3.4,5.9-3.5,7.2c0,0.9,0,0.9,0.9,0.1c2.1-1.9,6.6-8,6.3-8.7C-259.1,266.5-260.7,267.1-262.3,269.3z"
	/>
<path d="M-177.2,260.7c-0.2,0.6,1.1,4.2,4,11.2c0.5,1.2,1.1,0.6,1.1-1.1c0-2.3-0.9-6.3-2-8.8C-175,259.9-176.6,259.2-177.2,260.7z"
	/>
<path d="M-183.1,262.6c-0.6,0.7-0.3,1.4,1.8,5.3c1.4,2.5,3,5.1,3.6,5.9l1.1,1.3l-0.2-2.6c-0.3-3.6-3.9-10.6-5.3-10.6
	C-182.2,261.9-182.7,262.2-183.1,262.6z"/>
<path d="M-188,267.4c-0.8,1-0.4,1.9,3.2,6.1c2,2.4,3,3.2,3.1,2.6c0.3-1.5-4.2-9.4-5.4-9.4C-187.2,266.7-187.6,267-188,267.4z"/>
<path d="M379.1,163.2c0,0.7,3.4,3.7,3.8,3.3c0.2-0.2-0.4-1.1-1.3-2C380,162.9,379.1,162.4,379.1,163.2z"/>
<g>
	<path class="st0" d="M266.1,202.5c3.3,1.6,3.5,1.7,4,1c0.3-0.4,1.3-1.9,2.3-3.3c1.1-1.6,2.7-3.2,4.3-4.3c2-1.3,2.4-1.8,1.8-2
		c-0.4-0.2-2-0.4-3.6-0.5c-3.3-0.2-6.8,0.8-9,2.5c-1.4,1.1-3.9,4.4-3.5,4.7C262.5,200.7,264.2,201.6,266.1,202.5z"/>
	<path class="st0" d="M275.6,207.5c0,0.8,4.7,6,5.4,6c0.2,0,0.8-0.8,1.4-1.9c0.6-1,1.9-2.6,2.8-3.4c2.6-2.3,8.7-4.1,14.9-4.5
		c0.2,0,0.2-0.3,0.1-0.6c-0.3-0.8-3.5-2.5-6.1-3.3c-4.1-1.3-8.6-1.1-12.6,0.5C278.8,201.4,275.6,205.4,275.6,207.5z"/>
	<path class="st0" d="M295.6,256.4c1.5-0.6,4-2,5.5-3c8.6-5.6,14.2-19.1,12.9-30.7c-0.2-1.9-0.6-4.1-0.9-4.8
		c-1.9-5.2-7.5-8.2-14.6-7.7c-8.7,0.6-11.2,2.9-14.4,13c-1.9,6.1-1.9,7.2,0.6,8.6c4.7,2.5,10.4-2.7,11.1-10.1
		c0.3-3.3,1.2-3.4,2.4-0.2c0.9,2.3,0.9,2.3,2.4,2.2c0.9-0.1,2.2-0.5,3.1-1c2.2-1.1,2.8-1.1,2.8,0.4c0,1.5-0.9,2.7-3.1,4.3
		c-1,0.7-1.9,1.5-1.9,1.7c0,0.2,0.9,1.3,1.9,2.5c1.8,2,1.9,2.1,1,2.5c-1.3,0.7-3.3,0.2-5.3-1.3c-0.9-0.7-1.8-1.3-2-1.3
		c-0.2,0-0.8,0.7-1.4,1.5c-1.9,3-6.4,5.2-10.3,5.2h-1.4l0.1,1.9c0.2,2.3-0.2,4.1-0.8,3.9c-0.2-0.1-0.9-1.3-1.4-2.8
		c-1.7-4.8-5.7-9.9-9.2-11.8c-1.4-0.8-4.6-0.7-6.1,0.1c-1.8,1-4.6,1.3-6,0.8c-1.4-0.5-1.5-1.6-0.2-2c2-0.6,2-1,0.1-3.3
		c-1.7-2-3.3-5.5-2.8-6.3c0.1-0.2,0.7,0.1,1.3,0.7c1.9,1.8,5.7,3.9,7.7,4.3c2.6,0.4,6-0.7,7.4-2.4c1.3-1.5,1.4-3.7,0.4-5.5
		c-1-1.6-5.3-4.9-9.7-7.2c-4.8-2.6-6.7-2.6-10,0c-1.7,1.3-3.8,5.5-4.1,8.4c-0.3,2.7,0.7,10.2,2.1,14.4c1.9,5.9,6.1,10.7,13.7,15.9
		c4.3,2.9,7.3,4.4,11.8,5.9c1.6,0.5,2.9,1.1,3,1.4c0.1,0.3-0.7,0.7-1.9,1c-1.9,0.5-4.3,0.4-8.1-0.3c-1.2-0.2-1.4-0.1-1.4,0.9
		c0,1.7,1,3.3,3.3,5.4c5.4,4.9,15.1,6.8,22.3,4.3c1.7-0.6,3.6-1.5,4.4-2.1c1.4-1.1,3-4.6,2.4-5.3c-0.2-0.3-1.7-0.2-3.8,0.1
		c-3.3,0.5-5.6,0.2-5.6-0.7C292.8,257.7,294,257,295.6,256.4z"/>
</g>
<path d="M87.5,166.8c-3.2,0.9-7.7,5-8.6,7.8c-1.2,3.9-1.2,7.9,0.2,14c0.7,3.2,1.3,6.4,1.3,7c0,1.5-0.9,3.1-4.8,8.5
	c-2.5,3.5-3.2,4.1-4.4,4.1c-2.5,0-6.2,1.3-8.4,2.9c-3.7,2.7-6,7.6-7.2,15.1c-1.9,11.6,5.3,26.6,14.7,30.6c2.1,0.9,3.5,1.1,7.2,1.2
	c4.1,0,5.1,0.2,7.8,1.5c2.7,1.3,3.7,1.4,7.9,1.4c4,0,5,0.2,6.2,1.1c4.7,3.3,10.3,4.8,16.1,4.4c7.4-0.5,12.4-3.3,15.1-8.4
	c1.5-2.9,1.8-3.8,1.8-7.2c0.1-3.4,0.3-4.3,1.4-6.1c0.8-1.2,1.7-2.8,1.9-3.5c0.9-2.1,0.7-7.8-0.3-10.1c-0.8-1.9-0.8-2.1,0.1-4
	c1.5-3.1,1.4-10.9-0.2-14.1c-3.6-7.3-12.2-12-22.5-12.2c-2.5,0-4.7-0.2-4.8-0.3c-0.2-0.1,0.4-1.8,1.1-3.8c1.7-4.4,2.2-11.2,1.2-15.1
	c-1.9-7.5-6.6-12.5-13.5-14.6C93.3,165.9,90.9,165.8,87.5,166.8z"/>
<path class="st0" d="M97.7,174.5c2.6,1.7,4.7,4.5,5.6,7.5c0.9,2.8,0.7,9.9-0.3,14.8c-1,5-1,8.5,0,10.9c0.9,2.2,1.2,2.3,2.5,1
	c1.2-1.3,6.6-1.8,10.8-1c8.7,1.6,13.2,5.8,13.3,12.3c0,5-2,7.5-7.4,9.8c-7.4,3.1-18.3,1.4-20.8-3.3c-1.1-2.1-1-5,0.2-6.6
	c2.7-3.5,10.4-4.8,15.4-2.5c2.9,1.3,3.9,0.8,2.3-1.1c-1.3-1.6-1-2.3,1.1-2.3c1.8,0,1.9-0.6,0.4-1.7c-0.9-0.5-2.5-0.6-8.1-0.5
	c-3.9,0.1-8.1,0.5-9.3,0.8c-3.2,0.8-6.1,2.9-7.6,5.7c-1.7,3.2-2,5.6-1.1,8.8c0.8,3,0.7,3.4-2.1,6.5c-0.9,1.1-1.7,2.1-1.7,2.3
	c0,0.2,0.7,0.5,1.6,0.7c1.8,0.3,2.3,1,2.8,3.8c0.2,1,0.7,2.5,1.1,3.3c0.7,1.3,0.7,1.7-0.2,3.7c-0.5,1.2-1.1,3.2-1.2,4.4
	c-0.3,2-0.4,2.2-2.2,2.6c-1.4,0.3-2.5,0.2-4.3-0.4c-3.6-1.3-5.6-3.2-7.2-6.8c-0.8-1.7-1.7-3.2-1.9-3.2c-0.7,0-1.6,3.8-1.2,4.9
	c0.5,1.3-0.6,2.4-2.3,2.4c-3.9,0-9.3-5.9-11.7-12.9c-2.3-6.8-1.7-15.7,1.6-20.2c1.2-1.7,4.7-3.8,5.3-3.3c0.2,0.2,0.4,1.5,0.5,2.9
	c0.3,4.2,1.2,7.3,2.8,10c2.6,4.3,3,3.6,2.9-4.9c-0.1-8.9,0.5-10.7,5.7-17.1c3.4-4.4,4.9-7.6,4.9-11c0-1-0.6-4.3-1.3-7.3
	c-1.6-6.3-1.5-10.3,0.1-12C89.6,172.4,93.8,172,97.7,174.5z"/>
<path class="st0" d="M128.9,237.4c0,3-0.8,4.2-3.8,6.5c-2.6,1.8-5.3,2.4-11,2.2c-5.4-0.2-7.9-1.1-10.8-3.8c-1.8-1.7-2.2-4-0.9-5.5
	c0.6-0.7,0.9-0.7,3.3-0.1c6.6,1.7,13.1,1.4,18.7-0.9C128.5,234.1,128.9,234.2,128.9,237.4z"/>
<path class="st0" d="M106.9,251.2c4.7,1.3,9.8,1.6,15.2,0.7c1.7-0.2,3.2-0.3,3.4-0.2c0.1,0.1-0.2,1.3-0.8,2.5
	c-0.7,1.6-1.7,2.8-3.3,3.8c-2.1,1.4-2.5,1.5-7.2,1.5c-4.3,0-5.4-0.1-7.6-1.2c-4.1-2-5.8-4.7-4.7-7.5
	C102.4,249.9,101.8,249.8,106.9,251.2z"/>
<g>
	<path d="M57.5,48.5c-3.6,1-6.6,3.4-8.3,6.5c-2.2,4.1-1.5,6.9,2.7,11.5c3.5,3.8,3.9,5,3.2,9.1c-1.9,10.3-2.1,13.6-1.2,18.6
		c0.5,2.5,2.5,8,3.3,8.9c0.2,0.2-0.4,1.8-1.3,3.5c-1.4,2.7-1.6,3.6-1.6,5.9c0,8.3,6.5,16.6,15.4,19.7c4.1,1.4,8.8,1.6,12,0.4
		c3.1-1.1,6.4-4.2,7.5-7c0.8-1.8,1.2-2.3,2.3-2.6c2-0.6,6.2-3.1,8.7-5c6.6-5.2,12.2-8.4,19.5-11c9.2-3.3,14.4-6,17.6-9
		c2.1-2,3-3.5,3.2-5.8c0.1-1,0.7-2.7,1.4-4c3.2-6.2,2-11.5-3.4-15c-1.4-0.9-2.7-1.6-2.8-1.6c-0.2,0-0.6-1-1-2.1
		c-2.1-5.9-8.7-9.1-18.9-9.1c-5.8,0-11.1,0.7-22.6,3.1c-6.8,1.4-10.4,1.9-13.1,2l-3.7,0l-0.2-4.8c-0.2-5.3-0.8-6.6-3.6-9.1
		C68.9,48.3,62.6,47.1,57.5,48.5z"/>
	<path class="st0" d="M66.8,55.1c2.9,1.4,3.4,2.5,3.4,7.9c0,5.1,0.3,6,2.9,7.8c1,0.8,1.7,0.9,6.2,0.8c4.3,0,6.5-0.3,14.4-1.9
		c14.8-3,17.2-3.4,23.4-3.1c4,0.2,5.9,0.4,7.1,1c2.3,1,4,2.3,3.7,2.7c-0.2,0.2-1.4,0.4-2.8,0.4c-6,0-15.1,2.3-20.3,5l-2.5,1.3l-2-2
		c-2.5-2.5-3.2-2.2-2,1c2.7,7.4,5,14.5,5.9,19c0.6,2.9,1.2,5.3,1.5,5.5c0.5,0.5,1.3-1.2,1.7-4c0.4-2.8,0.5-2.9,5-5.1
		c5.6-2.7,11.3-4.3,15.5-4.3c4.1,0,6.9,1.6,6.9,3.8c0,2.7-4.4,5.4-15.2,9.4c-11,4-14.3,5.8-22,11.6c-6.2,4.6-10,6.2-14.8,6.2
		c-9.6,0-15.7-4.9-15.7-12.7c0-5,2.2-9.7,6.8-14.5c1.2-1.2,2-2.3,1.8-2.4c-0.2-0.2-1.3,0.2-2.5,0.8c-2.6,1.3-6.3,5-8.2,8.4
		c-0.7,1.2-1.5,2.2-1.7,2.2c-0.9,0-2.7-3.8-3.2-6.8c-0.6-3.5-0.3-8.9,0.9-14.3c1.7-7.9,1-10.8-3.9-16.1c-1.5-1.6-2.8-3.2-2.8-3.6
		c0-1.1,1.9-3.3,3.7-4.3c1.5-0.8,2.3-1,4.6-0.8C64.1,54.2,65.9,54.6,66.8,55.1z"/>
	<path class="st0" d="M130.4,76.4c2.9,0.5,5.3,1.7,6.2,2.9c0.7,1.1,0.9,2.9,0.2,4.1c-0.4,0.7-0.5,0.7-1.5,0.2
		c-0.6-0.3-2.4-0.8-3.9-1c-5.3-0.9-12,0.6-19.9,4.6c-2.7,1.4-4.1,1.9-4.3,1.5c-0.6-1-2.6-7.5-2.4-8c0.4-1,8.7-3.7,13.4-4.4
		C120.5,75.9,128.1,76,130.4,76.4z"/>
	<path class="st0" d="M63.5,111.7c2.4,6.6,8.2,10.9,15.7,11.7c1.3,0.1,2.6,0.4,2.9,0.6c1,0.6-0.8,2-3.3,2.7
		c-1.9,0.6-2.7,0.6-4.8,0.2c-7.1-1.4-13.5-8.1-13.5-14.1c0-1.7,1-4.1,1.6-4.1C62.2,108.7,62.9,110,63.5,111.7z"/>
</g>
<path class="st0" d="M258.5,58c2,2.1,2.7,7.4,1.4,10.8c-0.5,1.3-1.2,1.8-4.4,3.2c-6.3,2.6-11.1,7-12.5,11.4
	c-0.5,1.4-0.7,2.6-0.6,2.7c0.1,0.1,1.8-1.4,3.8-3.4c5-4.9,9.1-6.9,14.4-6.9c3.2,0,4.2,0.2,7.1,1.6c4.3,2.1,8.1,5.3,8.6,7.3
	c0.4,1.9-0.8,3.8-2.4,3.8c-0.6,0-2.6-0.6-4.3-1.4c-1.7-0.8-3.6-1.5-4-1.7c-0.5-0.1-0.9-0.7-0.9-1.3c0-1.2-0.4-1.1-4.8,1.3
	c-7.9,4.2-10.9,11.8-7.4,18.8c1.7,3.5,4.6,5.6,12.4,9.3c3.4,1.6,7,3.7,8,4.5c2,1.6,3.7,4.6,3.7,6.6c0,1.9-1.8,3.8-3.5,3.8
	c-1.8,0-2.9-0.5-6.4-3.2c-5.1-3.8-6.6-4.1-17-2.7c-5.1,0.6-6.8,0.7-9.5,0.2c-1.8-0.3-3.9-0.7-4.7-0.8l-1.5-0.2l1.8,1.6
	c1,0.9,3,2,4.4,2.5c2.9,1,2.8,1.7-0.3,2.7c-5.7,1.8-14.3-2.5-17.8-8.8c-1.7-3.1-2-5.1-1.2-7.1l0.7-1.6l1.6,2.3
	c1.7,2.4,2.9,2.7,2.6,0.8c-0.1-0.6-0.2-3.8-0.2-6.9c-0.1-6.3-0.4-5,4.9-18.8c1.8-4.6,1.9-5.2,2.2-12.5c0.4-8.3,0.7-9.9,2.7-11.1
	c1.1-0.7,1.5-0.7,2.8-0.1c3.3,1.3,3.8,5.8,1.2,11.3c-2,4.2-3.3,8.3-2.8,8.6c0.7,0.5,10.7-14.8,13.1-20.1c1.3-2.9,3-5.8,3.7-6.4
	C255.1,56.5,257.2,56.6,258.5,58z"/>
<path class="st0" d="M305.2,57.6c0.6,0.4,1.9,2.5,3,4.7c2.8,6.1,3.8,7.8,8.7,15c4.4,6.5,5.5,7.8,5.5,6.3c0-0.9-2-6-3.7-9.5
	c-1.5-3.2-1.6-4.4-0.3-7.1c1.1-2.5,2.7-3.3,4.6-2.6c2.4,0.9,3,2.9,3.4,11.6l0.3,7.9l2.6,6.7c1.4,3.7,2.9,7.6,3.3,8.7
	c0.8,2.2,1.1,9.6,0.5,13.6c-0.5,3.3,0.4,3.4,2.5,0.3c1.4-2,1.5-2.1,2-1.2c1.6,2.8-0.7,9-4.5,12.3c-4.2,3.7-10.5,5.4-14.6,3.9
	c-1.2-0.5-2.2-1-2.2-1.2c0-0.1,1.4-0.9,3.2-1.6c3.1-1.3,5.2-2.9,4.6-3.5c-0.1-0.1-1.7,0-3.4,0.5c-3.9,1-6.4,1-12.1,0
	c-5.4-0.9-9-0.9-11.3-0.2c-0.9,0.3-3.5,1.8-5.6,3.4c-4.2,3-6.1,3.5-8.2,2.1c-0.8-0.6-1.1-1.2-1.1-2.9c0-1.2,0.3-2.7,0.7-3.5
	c1.2-2.3,4.8-4.9,9.7-7.2c8.8-4,11.8-6.3,13.8-10.4c2.2-4.6,1.3-10.4-2.3-14.4c-1.6-1.7-8.4-6.1-9.6-6.1c-0.1,0-0.4,0.5-0.5,1.2
	c-0.2,0.7-0.6,1.2-1,1.2c-0.4,0-2.1,0.6-3.7,1.4c-4.7,2.3-7.2,1.8-7.1-1.6c0-1.2,0.6-2,2.7-4c9.6-8.6,19.5-7.7,29,2.6
	c2.9,3.3,3.6,2.3,1.3-2c-2.3-4.5-6.8-8.4-11.9-10.3c-3.1-1.2-4-1.7-4.5-2.8c-0.7-1.7-0.8-6.5-0.1-8.9C300,57.2,302.7,56,305.2,57.6z
	"/>
</svg>
