<svg width="82" height="101" viewBox="0 0 82 101" fill="none" xmlns="http://www.w3.org/2000/svg">
<g clip-path="url(#clip0_13_30)">
<path d="M32.11 0.700001C28.91 1.62 24.41 5.7 23.53 8.47C22.29 12.4 22.34 16.39 23.74 22.47C24.3103 24.778 24.7576 27.1146 25.08 29.47C25.08 30.93 24.15 32.58 20.27 37.97C17.74 41.52 17.12 42.1 15.88 42.1C12.8609 42.2881 9.95627 43.3245 7.50002 45.09C3.82002 47.81 1.50002 52.72 0.310017 60.2C-1.60998 71.76 5.64002 86.82 15 90.85C17.06 91.72 18.51 91.97 22.24 92.01C26.32 92.01 27.3 92.21 29.99 93.47C32.68 94.73 33.67 94.88 37.85 94.88C42.03 94.88 42.85 95.07 44.06 95.95C48.7876 99.1975 54.4798 100.739 60.2 100.32C67.64 99.83 72.61 97.07 75.3 91.92C76.6407 89.7733 77.2576 87.2532 77.06 84.73C77.06 81.38 77.31 80.45 78.45 78.61C79.1891 77.483 79.8314 76.2954 80.37 75.06C81.25 72.97 81.04 67.24 80.11 65.06C79.28 63.16 79.33 62.97 80.21 61.06C81.71 58 81.61 50.13 80.06 46.97C76.44 39.64 67.9 34.97 57.51 34.73C55.916 34.7734 54.3217 34.6595 52.75 34.39C52.59 34.24 53.11 32.54 53.84 30.55C55.49 26.18 56.06 19.38 55.08 15.55C53.21 7.89 48.51 2.88 41.53 0.800001C38.4793 -0.226653 35.1819 -0.261657 32.11 0.700001Z" fill="black"/>
<path d="M42.3 8.47C44.9577 10.2906 46.9403 12.9375 47.94 16C48.82 18.82 48.66 25.86 47.63 30.81C46.6 35.76 46.63 39.27 47.63 41.74C48.56 43.93 48.87 44.07 50.11 42.74C51.35 41.41 56.73 40.95 60.92 41.74C69.61 43.25 74.16 47.47 74.21 54C74.21 59 72.21 61.53 66.76 63.81C59.37 66.87 48.51 65.17 45.92 60.51C44.78 58.42 44.92 55.51 46.13 53.95C48.87 50.41 56.52 49.15 61.54 51.43C64.44 52.74 65.47 52.25 63.87 50.31C62.52 48.74 62.89 48 65 48C66.76 48 66.92 47.37 65.42 46.35C64.54 45.81 62.94 45.72 57.3 45.86C54.1836 45.9296 51.0745 46.1901 47.99 46.64C46.4036 47.0205 44.9115 47.7204 43.6048 48.697C42.298 49.6736 41.2042 50.9064 40.39 52.32C38.68 55.53 38.39 57.91 39.3 61.11C40.13 64.11 39.97 64.56 37.18 67.62C36.4756 68.3191 35.8821 69.1217 35.42 70C35.42 70.25 36.15 70.54 36.98 70.73C38.73 71.02 39.25 71.73 39.82 74.52C40.037 75.6626 40.4354 76.7632 41 77.78C41.67 79.09 41.67 79.43 40.84 81.47C40.2669 82.8938 39.8511 84.3759 39.6 85.89C39.34 87.89 39.24 88.13 37.43 88.52C35.9917 88.8674 34.4778 88.7122 33.14 88.08C31.497 87.5689 29.9916 86.6912 28.7374 85.5132C27.4832 84.3352 26.513 82.8877 25.9 81.28C25.4505 80.1265 24.808 79.0579 24 78.12C23.33 78.12 22.4 81.91 22.76 83.03C23.23 84.34 22.19 85.41 20.44 85.41C16.51 85.41 11.18 79.53 8.69997 72.54C6.35997 65.69 6.99997 56.85 10.24 52.33C11.43 50.63 14.94 48.49 15.56 49.08C15.8815 50.021 16.0569 51.0058 16.08 52C16.1836 55.5105 17.1412 58.9429 18.87 62C21.46 66.27 21.87 65.64 21.77 57.14C21.72 48.25 22.29 46.45 27.46 39.99C30.87 35.62 32.32 32.42 32.32 28.99C32.0667 26.5068 31.6254 24.0464 31 21.63C29.44 15.32 29.5 11.29 31.1 9.63C34.18 6.28 38.37 5.9 42.3 8.47Z" fill="#11FFA9"/>
<path d="M73.4401 71.32C73.4401 74.32 72.6601 75.55 69.6601 77.78C67.0701 79.63 64.33 80.21 58.66 79.97C53.23 79.73 50.74 78.85 47.85 76.18C46.09 74.53 45.68 72.18 46.92 70.69C47.49 69.96 47.8 69.96 50.23 70.55C56.4239 72.2352 62.9911 71.9273 69 69.67C73.07 68 73.4401 68.17 73.4401 71.32Z" fill="#11FFA9"/>
<path d="M51.46 85.17C56.4175 86.4903 61.6 86.7358 66.66 85.89C67.7605 85.6821 68.8812 85.6016 70 85.65C69.9244 86.5381 69.662 87.4003 69.23 88.18C68.5625 89.7495 67.4368 91.0809 66 92C63.93 93.36 63.52 93.45 58.81 93.45C54.47 93.45 53.43 93.31 51.26 92.24C47.17 90.24 45.47 87.58 46.6 84.76C47 83.81 46.34 83.71 51.46 85.17Z" fill="#11FFA9"/>
</g>
<defs>
<clipPath id="clip0_13_30">
<rect width="81.28" height="100.38" fill="white"/>
</clipPath>
</defs>
</svg>
