<svg width="129" height="83" viewBox="0 0 129 83" fill="none" xmlns="http://www.w3.org/2000/svg">
<g clip-path="url(#clip0_13_28)">
<path d="M125.75 55.54C124.706 54.3028 124.015 52.8069 123.75 51.21C123.295 47.1644 122.285 43.2006 120.75 39.43C117.56 31.11 117.51 30.82 117.16 22.79C116.81 15.63 116.71 14.79 115.41 12.31C112.41 6.4 105.88 5 100.2 9.09C98.8 10.09 98.4 10.15 98.2 9.57C97.6069 8.20112 96.9392 6.86578 96.2 5.57C94.75 2.83 94 2.01 92.2 1.1C89.41 -0.300003 85.2 -0.390003 82.68 0.909997C78.68 2.91 76.44 8.55 76.94 15.14L77.24 18.99L74.34 20.19C72.0543 21.2451 69.8396 22.4476 67.71 23.79L64 26.26L61.5 24.43C59.4669 23.0142 57.3156 21.7763 55.07 20.73L51.17 19L51.12 13.47C51.12 8.37 50.97 7.79 49.57 5.1C47.57 1.4 45.43 0.0999974 41.09 0.0999974C39.429 0.0255496 37.7731 0.33346 36.25 0.999997C34.1 2.11 32.91 3.65 31.16 7.4L29.91 10.1L27.67 8.56C25.6058 7.1125 23.0757 6.48757 20.575 6.80755C18.0743 7.12754 15.7831 8.3694 14.15 10.29C11.95 13.03 11.31 15.92 11.15 23.56L11 30.56L8.39997 37.24C5.76997 44.05 4.41997 49 4.41997 52C4.44912 52.5261 4.35593 53.0519 4.14773 53.536C3.93952 54.02 3.62196 54.4493 3.21997 54.79C2.06653 55.9923 1.18272 57.4268 0.627467 58.9977C0.0722164 60.5686 -0.141706 62.2399 -3.4567e-05 63.9C0.499965 71.9 7.32997 79.39 16.51 81.74C23.2 83.47 27.44 82.56 32.18 78.23C34.82 75.83 34.97 75.73 38.32 75.59C42.56 75.35 44.6 75.97 47.94 78.59C53.23 82.77 57.17 83.73 61.86 82.05C64.11 81.23 64.31 81.23 66.55 82.05C71.39 83.83 75.08 82.92 80.22 78.69C83.56 75.94 85.36 75.37 90 75.61C93.59 75.75 93.74 75.85 95.59 77.72C97.4487 79.9109 99.9865 81.4174 102.8 82C105.607 82.8946 108.623 82.8946 111.43 82C114.611 81.2686 117.6 79.8684 120.199 77.8925C122.797 75.9166 124.945 73.4102 126.5 70.54C129.54 64.67 129.34 60.39 125.75 55.54ZM85.84 49.62C84.69 52.22 83.74 52.85 75.84 56.69C72.8449 58.14 69.9457 59.78 67.16 61.6C66.2203 62.3152 65.2159 62.9412 64.16 63.47C63.1786 63.0033 62.2555 62.4226 61.41 61.74C58.7408 60.0136 55.9578 58.4701 53.08 57.12C46.43 53.9 43.68 52 42.59 50C40.19 45.58 44.03 39.42 48.72 40.19C50.347 40.607 51.9334 41.1693 53.46 41.87C56.95 43.51 58.9 43.65 61.79 42.55C63.69 41.83 64.04 41.83 66.58 42.6C69.92 43.6 71.52 43.41 76.31 41.39C79.55 40 80.1 39.9 81.8 40.39C82.714 40.6714 83.5566 41.1466 84.2702 41.7833C84.9838 42.4199 85.5518 43.203 85.9353 44.0791C86.3187 44.9552 86.5087 45.9037 86.4923 46.86C86.4758 47.8162 86.2533 48.7576 85.84 49.62Z" fill="black"/>
<path d="M43.2299 6.4C45.2799 8.47 45.9799 13.75 44.6799 17.22C44.1299 18.56 43.4799 19.04 40.2399 20.39C33.9999 23 29.1699 27.36 27.7199 31.79C27.3153 32.6462 27.1101 33.583 27.1199 34.53C27.2199 34.67 28.9699 33.13 30.9599 31.16C35.9599 26.26 40.0399 24.28 45.3299 24.28C47.8159 24.1172 50.2949 24.6874 52.4599 25.92C56.7499 28 60.5999 31.26 60.9999 33.23C61.3999 35.2 60.2499 37 58.5999 37C57.0965 36.7323 55.6364 36.2613 54.2599 35.6C52.5099 34.83 50.6699 34.11 50.2599 33.92C49.9956 33.8204 49.7679 33.6427 49.6071 33.4104C49.4463 33.1782 49.3601 32.9025 49.3599 32.62C49.3599 31.42 48.9599 31.51 44.5199 33.92C36.5999 38.18 33.6099 45.78 37.0999 52.7C38.8399 56.16 41.6899 58.28 49.5199 62.03C52.2976 63.312 54.9722 64.8064 57.5199 66.5C59.5199 68.09 61.2099 71.12 61.2599 73.14C61.2162 74.0893 60.836 74.992 60.1874 75.6864C59.5387 76.3809 58.664 76.8217 57.7199 76.93C55.8799 76.93 54.7799 76.41 51.2899 73.76C46.1999 69.91 44.6499 69.67 34.2899 71.02C29.1599 71.65 27.5099 71.69 24.8199 71.21C23.0199 70.92 20.9199 70.54 20.0799 70.4L18.5799 70.16L20.3799 71.74C21.6996 72.8035 23.1819 73.6477 24.7699 74.24C27.6599 75.24 27.6099 75.97 24.4699 76.98C18.7299 78.81 10.1499 74.53 6.65994 68.14C4.99994 65 4.66994 63 5.51994 61.07L6.21994 59.43L7.85994 61.69C9.55994 64.1 10.7599 64.43 10.5099 62.46C10.4099 61.84 10.3099 58.71 10.2599 55.54C10.1599 49.24 9.80994 50.59 15.1499 36.79C16.9399 32.22 17.0399 31.59 17.3899 24.28C17.7899 16.01 18.1399 14.43 20.1399 13.18C20.5206 12.8477 21.0002 12.65 21.5045 12.6174C22.0087 12.5849 22.5097 12.7193 22.9299 13C26.2699 14.3 26.7699 18.82 24.1299 24.25C22.1299 28.49 20.7799 32.57 21.3299 32.86C22.0799 33.34 32.0099 18.05 34.4499 12.71C35.7999 9.78 37.4499 6.94 38.1499 6.32C38.8351 5.65879 39.7544 5.29598 40.7065 5.31097C41.6585 5.32596 42.5659 5.71754 43.2299 6.4Z" fill="#11FFA9"/>
<path d="M89.93 6C90.58 6.44 91.88 8.5 92.93 10.71C95.78 16.77 96.77 18.5 101.66 25.71C106.1 32.25 107.2 33.5 107.2 32.05C107.2 31.19 105.2 26.05 103.51 22.58C101.96 19.41 101.91 18.21 103.21 15.51C104.36 13.06 105.9 12.2 107.8 12.92C110.24 13.78 110.8 15.8 111.19 24.5L111.54 32.44L114.19 39.17C115.58 42.87 117.13 46.77 117.53 47.82C118.38 49.99 118.68 57.39 118.03 61.38C117.53 64.7 118.48 64.8 120.57 61.72C121.97 59.72 122.12 59.6 122.57 60.52C124.16 63.31 121.87 69.52 118.03 72.83C113.79 76.53 107.5 78.21 103.41 76.72C102.58 76.4938 101.811 76.0836 101.16 75.52C102.148 74.8347 103.225 74.2864 104.36 73.89C107.45 72.54 109.6 70.95 109 70.38C107.834 70.3319 106.668 70.4945 105.56 70.86C101.61 71.86 99.17 71.86 93.43 70.86C87.99 70 84.43 69.95 82.16 70.67C80.1743 71.6062 78.2852 72.7349 76.52 74.04C72.28 77.04 70.43 77.55 68.34 76.11C67.49 75.53 67.24 74.9 67.24 73.22C67.236 72.0149 67.474 70.8213 67.94 69.71C69.19 67.4 72.73 64.81 77.67 62.55C86.5 58.55 89.44 56.3 91.49 52.11C92.5573 49.7624 92.9075 47.1519 92.4965 44.6061C92.0856 42.0602 90.9318 39.6925 89.18 37.8C87.59 36.06 80.75 31.74 79.6 31.74C79.2992 32.075 79.1074 32.4935 79.05 32.94C78.85 33.61 78.41 34.14 78.05 34.14C76.7454 34.4535 75.4879 34.9377 74.31 35.58C69.57 37.89 67.12 37.36 67.22 34C67.22 32.79 67.82 32 69.96 30C79.54 21.39 89.47 22.3 98.96 32.59C101.9 35.86 102.55 34.9 100.31 30.59C97.6953 25.8386 93.4619 22.1836 88.38 20.29C85.29 19.14 84.38 18.56 83.89 17.46C83.15 15.77 83.1 10.97 83.74 8.56C84.64 5.58 87.44 4.43 89.93 6Z" fill="#11FFA9"/>
</g>
<defs>
<clipPath id="clip0_13_28">
<rect width="128.63" height="82.89" fill="white"/>
</clipPath>
</defs>
</svg>
