<svg width="77" height="88" viewBox="0 0 77 88" fill="none" xmlns="http://www.w3.org/2000/svg">
<g clip-path="url(#clip0_13_31)">
<path d="M75.4 30.07C74.1943 26.1311 71.674 22.7249 68.26 20.42C66.5675 19.427 65.1697 18.0016 64.21 16.29C62.5031 13.2848 60.0466 10.7731 57.08 9C54.9636 7.99808 52.7656 7.17844 50.5099 6.55C48.1575 5.94139 45.9069 4.99129 43.83 3.73C39.58 0.860005 32.07 -0.659996 26.21 0.270004C23.1885 0.858843 20.342 2.13214 17.8892 3.99215C15.4363 5.85217 13.4422 8.24945 12.06 11C10.94 13.27 10.16 14.24 9.05995 14.83C6.32952 16.6534 4.02112 19.0402 2.28995 21.83C0.629952 24.8 -0.0800482 28.13 -4.81773e-05 32.85C0.119952 40.27 1.80995 47.52 4.65995 52.74C6.38995 55.82 11.3 60.74 15.72 63.83L18.82 66V68.66C18.82 73.8 21.59 78.44 26.91 81.98C37.68 89.14 53.4 88.68 60.91 80.98C63.55 78.24 64.54 75.37 64.26 71.12L64.05 68.33L67.05 65.13C71.0496 60.4814 73.8966 54.9552 75.36 49C76.2172 45.7394 76.5779 42.3682 76.43 39C76.47 34 76.35 33 75.4 30.07Z" fill="black"/>
<path d="M21.8399 15.86C25.1399 17.47 25.3799 17.55 25.8399 16.86C26.1299 16.44 27.1599 14.97 28.1499 13.53C29.3173 11.8707 30.7698 10.4318 32.4399 9.28C34.4399 7.93 34.8299 7.47 34.2599 7.28C33.0833 6.99658 31.8799 6.83903 30.6699 6.81C27.4723 6.5748 24.292 7.4547 21.6699 9.3C20.3099 10.35 17.7899 13.68 18.1199 13.98C18.2499 14.05 19.8999 14.9 21.8399 15.86Z" fill="#11FFA9"/>
<path d="M31.33 20.8C31.33 21.55 36.03 26.8 36.69 26.8C37.2764 26.3036 37.7532 25.6906 38.09 25C38.8587 23.7378 39.8051 22.5927 40.9 21.6C43.5 19.28 49.57 17.47 55.76 17.13C55.92 17.13 55.96 16.88 55.84 16.54C55.55 15.78 52.33 14.05 49.69 13.21C45.5526 11.9045 41.0914 12.067 37.06 13.67C34.54 14.68 31.33 18.69 31.33 20.8Z" fill="#11FFA9"/>
<path d="M51.3 69.73C53.2086 68.8553 55.0561 67.8531 56.83 66.73C65.41 61.09 71 47.64 69.74 36C69.5894 34.3917 69.3017 32.7993 68.88 31.24C66.94 26.01 61.37 23.06 54.23 23.57C45.56 24.16 43.05 26.43 39.79 36.57C37.85 42.68 37.93 43.82 40.4 45.13C45.07 47.64 50.8 42.42 51.5 35C51.84 31.71 52.66 31.63 53.9 34.79C54.81 37.07 54.9 37.11 56.33 36.98C57.4132 36.8274 58.4619 36.4891 59.43 35.98C61.61 34.84 62.27 34.98 62.27 36.36C62.27 37.74 61.41 39.1 59.18 40.66C58.18 41.38 57.32 42.14 57.32 42.39C57.8358 43.3004 58.4752 44.135 59.22 44.87C61.04 46.87 61.08 46.94 60.22 47.4C58.94 48.12 56.92 47.61 54.9 46.14C54.2979 45.6227 53.6243 45.1949 52.9 44.87C52.69 44.87 52.11 45.55 51.54 46.39C49.6 49.34 45.14 51.58 41.22 51.62H39.79L39.91 53.51C40.12 55.79 39.7 57.64 39.08 57.43C38.4422 56.5851 37.9674 55.6288 37.68 54.61C36.03 49.85 31.99 44.61 28.48 42.77C26.5025 42.0294 24.3169 42.0724 22.37 42.89C20.6 43.89 17.75 44.2 16.37 43.65C14.99 43.1 14.88 42.09 16.16 41.65C18.16 41.02 18.16 40.65 16.25 38.36C14.51 36.36 12.98 32.89 13.44 32.08C13.56 31.87 14.14 32.21 14.76 32.8C16.9731 34.7656 19.5917 36.22 22.43 37.06C25.08 37.44 28.43 36.38 29.82 34.7C30.441 33.9292 30.8096 32.986 30.8758 31.9984C30.942 31.0108 30.7026 30.0268 30.19 29.18C29.19 27.53 24.91 24.29 20.45 21.93C15.67 19.36 13.73 19.36 10.45 21.93C8.75001 23.37 6.73001 27.5 6.36001 30.4C6.00001 33.1 7.10001 40.6 8.47001 44.78C10.32 50.68 14.53 55.52 22.12 60.66C25.7524 63.2269 29.7597 65.2171 34 66.56C35.0874 66.8312 36.1082 67.3212 37 68C37.08 68.29 36.26 68.71 35.06 69C33.12 69.46 30.77 69.38 26.93 68.7C25.69 68.49 25.57 68.58 25.57 69.59C25.57 71.27 26.57 72.87 28.83 74.98C34.19 79.91 43.97 81.81 51.15 79.32C52.6932 78.8044 54.1649 78.0954 55.53 77.21C56.97 76.08 58.53 72.58 57.92 71.95C57.67 71.69 56.27 71.74 54.12 72.03C50.78 72.54 48.51 72.24 48.55 71.31C48.53 71 49.77 70.36 51.3 69.73Z" fill="#11FFA9"/>
</g>
<defs>
<clipPath id="clip0_13_31">
<rect width="76.44" height="87.04" fill="white"/>
</clipPath>
</defs>
</svg>
