<svg width="96" height="86" viewBox="0 0 96 86" fill="none" xmlns="http://www.w3.org/2000/svg">
<g clip-path="url(#clip0_13_29)">
<path d="M9.54005 0.57C7.79241 1.04363 6.15703 1.86172 4.72998 2.97623C3.30293 4.09073 2.11299 5.47918 1.23005 7.06C-0.999946 11.12 -0.309946 14 3.93005 18.57C7.47005 22.42 7.93005 23.57 7.09005 27.67C5.22005 37.94 5.00005 41.25 5.84005 46.25C6.30005 48.74 8.34005 54.25 9.13005 55.11C9.29005 55.27 8.71005 56.89 7.84005 58.63C6.43005 61.36 6.22005 62.18 6.22005 64.54C6.22005 72.82 12.7001 81.1 21.5901 84.2C25.6701 85.61 30.3601 85.77 33.5901 84.57C36.882 83.2562 39.5641 80.7595 41.1101 77.57C41.9001 75.75 42.3101 75.29 43.4301 74.92C46.5485 73.6725 49.4743 71.989 52.1201 69.92C57.9523 65.171 64.568 61.4757 71.6701 59C80.8601 55.69 86.0501 53 89.2501 50C91.3701 48 92.2501 46.48 92.4901 44.2C92.7726 42.8064 93.2506 41.4598 93.9101 40.2C97.1501 33.95 95.9101 28.74 90.5001 25.2C89.601 24.6084 88.6695 24.0676 87.7101 23.58C87.2399 22.95 86.9 22.2327 86.7101 21.47C84.6001 15.51 78.0001 12.36 67.8501 12.36C62.0301 12.36 56.7501 13.11 45.2801 15.51C38.5101 16.91 34.8901 17.45 32.1901 17.51H28.4501L28.2401 12.75C27.9901 7.42 27.4501 6.13 24.6301 3.61C20.9301 0.44 14.6501 -0.84 9.54005 0.57Z" fill="black"/>
<path d="M18.85 7.19C21.76 8.64 22.22 9.67 22.22 15.05C22.22 20.18 22.55 21.05 25.09 22.87C26.09 23.66 26.79 23.74 31.28 23.7C35.6 23.7 37.76 23.41 45.7 21.8C60.53 18.8 62.86 18.44 69.1 18.65C73.1 18.82 75.04 19.06 76.24 19.65C78.53 20.65 80.24 21.93 79.98 22.38C79.0792 22.7118 78.1165 22.8415 77.16 22.76C70.1156 23.0162 63.199 24.7181 56.84 27.76L54.38 29L52.38 27C49.84 24.48 49.18 24.85 50.38 28C52.7812 34.1948 54.7689 40.5421 56.33 47C56.6408 48.8908 57.1262 50.7488 57.78 52.55C58.32 53.08 59.07 51.31 59.44 48.55C59.81 45.79 59.94 45.62 64.44 43.42C70.01 40.69 75.74 39.12 79.98 39.12C84.06 39.12 86.88 40.69 86.88 42.97C86.88 45.66 82.43 48.39 71.71 52.32C60.71 56.32 57.46 58.07 49.71 63.91C43.51 68.54 39.71 70.16 34.87 70.16C25.23 70.16 19.16 65.27 19.16 57.49C19.16 52.44 21.32 47.81 25.94 42.97C27.1 41.77 27.89 40.65 27.76 40.53C27.63 40.41 26.48 40.73 25.23 41.35C22.61 42.64 18.91 46.35 17 49.71C16.6202 50.5955 16.0173 51.3673 15.25 51.95C14.34 51.95 12.6 48.18 12.05 45.12C11.47 41.64 11.76 36.26 12.93 30.84C14.59 22.94 13.93 20.04 9.06003 14.84C7.95737 13.8019 7.01988 12.6014 6.28003 11.28C6.28003 10.16 8.19003 7.97 10.02 6.97C11.4108 6.1988 13.0179 5.91043 14.59 6.15C16.0591 6.25042 17.5 6.60219 18.85 7.19Z" fill="#11FFA9"/>
<path d="M82.48 28.54C85.39 29.08 87.8 30.2 88.67 31.48C89.0451 32.081 89.2645 32.7661 89.3081 33.4733C89.3518 34.1805 89.2184 34.8874 88.92 35.53C88.54 36.24 88.38 36.24 87.38 35.74C86.11 35.2438 84.7831 34.9078 83.43 34.74C78.0966 33.8267 71.45 35.3567 63.49 39.33C60.74 40.7 59.37 41.19 59.16 40.86C58.54 39.86 56.59 33.33 56.79 32.86C57.17 31.86 65.48 29.14 70.22 28.44C74.3003 28.0781 78.4061 28.1116 82.48 28.54Z" fill="#11FFA9"/>
<path d="M15.57 63.84C18 70.42 23.76 74.76 31.24 75.55C32.217 75.5988 33.1811 75.7943 34.0999 76.13C35.0999 76.71 33.31 78.13 30.82 78.82C29.2701 79.3745 27.5869 79.4373 26 79C18.85 77.63 12.45 70.93 12.45 64.88C12.45 63.23 13.45 60.79 14.07 60.79C14.28 60.78 15 62.14 15.57 63.84Z" fill="#11FFA9"/>
</g>
<defs>
<clipPath id="clip0_13_29">
<rect width="95.69" height="85.37" fill="white"/>
</clipPath>
</defs>
</svg>
